<?xml version="1.0" encoding="utf-8"?>
<!-- Generator: Adobe Illustrator 22.1.0, SVG Export Plug-In . SVG Version: 6.00 Build 0)  -->
<svg version="1.1" id="Ebene_1" xmlns="http://www.w3.org/2000/svg" xmlns:xlink="http://www.w3.org/1999/xlink" x="0px" y="0px"
	 viewBox="0 0 412.5 106" style="enable-background:new 0 0 412.5 106;" xml:space="preserve">
<style type="text/css">
	.st0{fill:#FFFFFF;}
	.st1{fill:#FFE600;}
	.st2{fill:#E30613;}
	.st3{fill:#2EA836;}
	.st4{fill:#0090D4;}
</style>
<g>
	<path class="st0" d="M367.8,102.6H44c-23.2,0-42-18.8-42-42l0,0c0-23.2,18.8-42,42-42h323.8c23.2,0,42,18.8,42,42l0,0
		C409.9,83.8,391,102.6,367.8,102.6z"/>
	<path d="M367.8,103.5H44c-23.7,0-43-19.3-43-43s19.3-43,43-43h323.8c23.7,0,43,19.3,43,43C410.8,84.3,391.5,103.5,367.8,103.5z
		 M44,19.4c-22.7,0-41.1,18.4-41.1,41.1s18.4,41.1,41.1,41.1h323.8c22.7,0,41.1-18.4,41.1-41.1s-18.4-41.1-41.1-41.1
		C367.8,19.4,44,19.4,44,19.4z"/>
</g>
<path class="st1" d="M114.7,83.9c-4.4-14.7-10.9-41.3-12.1-46.5c-0.1-0.5-0.6-0.9-1.1-1l-20.7-2.2c-0.7-0.1-1.3,0.4-1.4,1
	c-1.3,6-7.4,33.7-12.2,48.6c-0.3,0.8,0.3,1.7,1.2,1.7l18.2,1c0.6,0,1.2-0.4,1.4-1l2.3-10.9c0.1-0.6,0.7-1,1.3-1h2.8
	c0.6,0,1.2,0.4,1.3,1l2.4,10.9c0.1,0.6,0.7,1.1,1.4,1l14.3-1C114.4,85.6,115,84.8,114.7,83.9z M89.5,54.7c-2.5,0-4.6-2.1-4.6-4.6
	s2.1-4.6,4.6-4.6s4.6,2.1,4.6,4.6C94.1,52.6,92.1,54.7,89.5,54.7z"/>
<path d="M86.6,87.6L86.6,87.6l-18.3-1c-0.7,0-1.3-0.4-1.7-1c-0.4-0.6-0.5-1.3-0.3-1.9l0,0c4.8-15,11-43.1,12.2-48.5
	c0.2-1.1,1.3-1.9,2.4-1.8l20.7,2.2c0.9,0.1,1.7,0.8,1.9,1.7c1.3,5.2,7.7,31.8,12.1,46.5c0.2,0.7,0.1,1.4-0.3,1.9
	c-0.4,0.6-1,0.9-1.7,1l-14.3,1c-1.1,0.1-2.1-0.7-2.3-1.8L94.6,75c0-0.2-0.2-0.3-0.4-0.3h-2.8c-0.2,0-0.3,0.1-0.4,0.3l-2.3,10.9
	C88.5,86.8,87.6,87.6,86.6,87.6z M68,84.2c0,0.2,0,0.3,0,0.3c0,0.1,0.1,0.2,0.3,0.2l18.2,1c0.2,0,0.4-0.1,0.4-0.3l2.3-10.9
	c0.2-1,1.1-1.8,2.2-1.8h2.8c1,0,2,0.7,2.2,1.8l2.4,10.9c0,0.2,0.2,0.3,0.4,0.3l14.3-1c0.2,0,0.3-0.1,0.3-0.2s0.1-0.2,0.1-0.3
	c-4.4-14.7-10.9-41.4-12.2-46.6c0-0.2-0.2-0.3-0.3-0.3l-20.7-2.2c-0.2,0-0.4,0.1-0.4,0.3C79,41,72.8,69.1,68,84.2L68,84.2z"/>
<path d="M89.5,55.6c-3,0-5.5-2.5-5.5-5.5s2.5-5.5,5.5-5.5s5.5,2.5,5.5,5.5C95.1,53.2,92.6,55.6,89.5,55.6z M89.5,46.4
	c-2,0-3.7,1.6-3.7,3.7s1.6,3.7,3.7,3.7s3.7-1.6,3.7-3.7S91.6,46.4,89.5,46.4z"/>
<path class="st2" d="M56.6,58.8c-0.1,0-0.1-0.2,0-0.2c4.4-2.4,7.3-6.4,7.3-10.8c0-7.4-8.1-13.4-18-13.4c-8.8,0-13.5,1.4-15.1,2
	c-0.4,0.2-0.7,0.5-0.8,0.9c-0.5,1.9-1.7,8.2-1.7,21.1c0,13.3,1.3,23.5,1.7,26.5c0.1,0.6,0.5,1,1.1,1.1c1.8,0.3,6.4,0.9,16.2,0.9
	c10.5-0.1,18.9-6.8,18.9-15.1C66.1,66.2,62.3,61.4,56.6,58.8z M48.7,75.7c-2.5,0-4.6-2.1-4.6-4.6s2.1-4.6,4.6-4.6s4.6,2.1,4.6,4.6
	S51.3,75.7,48.7,75.7z M48.7,54.7c-2.5,0-4.6-2.1-4.6-4.6s2.1-4.6,4.6-4.6s4.6,2.1,4.6,4.6C53.3,52.6,51.3,54.7,48.7,54.7z"/>
<path d="M47.2,87.8c-9.8,0-14.4-0.6-16.4-0.9C29.9,86.7,29.1,86,29,85c-0.4-2.8-1.7-13.2-1.7-26.6c0-12.9,1.2-19.2,1.7-21.3
	c0.2-0.7,0.7-1.3,1.4-1.6c1.7-0.6,6.5-2,15.4-2c10.4,0,18.9,6.4,18.9,14.3c0,4.1-2.4,8.1-6.5,10.8c5.4,3,8.8,7.9,8.8,13.2
	C67,80.5,58.1,87.7,47.2,87.8z M45.8,35.3c-8.7,0-13.2,1.3-14.8,1.9c-0.1,0-0.2,0.1-0.2,0.3c-0.5,2.1-1.6,8.3-1.6,20.9
	c0,13.3,1.3,23.5,1.7,26.4c0,0.2,0.1,0.3,0.3,0.3c1.8,0.3,6.4,0.9,16,0.9c9.9-0.1,18-6.4,18-14.2c0-5-3.4-9.7-9-12.2l0,0
	c-0.4-0.2-0.6-0.5-0.6-0.9s0.2-0.8,0.5-1c4.3-2.4,6.8-6,6.8-10C62.9,40.9,55.2,35.3,45.8,35.3z"/>
<path d="M48.7,76.7c-3,0-5.5-2.5-5.5-5.5s2.5-5.5,5.5-5.5s5.5,2.5,5.5,5.5C54.3,74.2,51.8,76.7,48.7,76.7z M48.7,67.5
	c-2,0-3.7,1.6-3.7,3.7s1.6,3.7,3.7,3.7c2,0,3.7-1.6,3.7-3.7S50.8,67.5,48.7,67.5z"/>
<path d="M48.7,55.6c-3,0-5.5-2.5-5.5-5.5s2.5-5.5,5.5-5.5s5.5,2.5,5.5,5.5C54.3,53.2,51.8,55.6,48.7,55.6z M48.7,46.4
	c-2,0-3.7,1.6-3.7,3.7s1.6,3.7,3.7,3.7c2,0,3.7-1.6,3.7-3.7S50.8,46.4,48.7,46.4z"/>
<g>
	<path class="st3" d="M181.3,85.4c4-16,8.2-31.5,16.3-47.4c0.4-0.8-0.1-1.8-1-1.9l-18.1-1.8c-0.6-0.1-1.2,0.3-1.4,0.9l-4.7,14
		c-0.1,0.2-0.4,0.2-0.5,0l-3.5-11.8c-0.1-0.5-0.5-0.8-1-0.9l-12.1-2c-1-0.2-1.8,0.8-1.5,1.7l10.5,32.2c0,0.1,0,0.1,0,0.2L159.6,84
		c-0.3,0.8,0.3,1.7,1.2,1.7l19.1,0.9C180.6,86.5,181.2,86,181.3,85.4z"/>
	<path d="M180.1,87.4H180l-19.1-0.9c-0.7,0-1.3-0.4-1.7-0.9c-0.4-0.6-0.5-1.3-0.3-1.9l4.7-15.2l-10.4-32c-0.2-0.8-0.1-1.6,0.4-2.2
		c0.5-0.6,1.3-0.9,2.1-0.7l12.1,2c0.8,0.1,1.5,0.8,1.8,1.6l2.9,9.8l4-12c0.3-1,1.3-1.6,2.4-1.5l18.1,1.8c0.7,0.1,1.4,0.5,1.7,1.2
		c0.4,0.7,0.4,1.4,0,2.1c-8,15.6-12.1,30.6-16.3,47.2l0,0C182,86.7,181.1,87.4,180.1,87.4z M155.2,35.4c-0.1,0-0.2,0.1-0.3,0.1
		c-0.1,0.1-0.1,0.2-0.1,0.4l10.5,32.2c0.1,0.2,0.1,0.5,0,0.7l-4.7,15.4c0,0.2,0,0.3,0.1,0.3s0.1,0.2,0.3,0.2l19.2,0.9
		c0.2,0,0.3-0.1,0.4-0.3l0,0c4.2-16.7,8.3-31.8,16.4-47.5c0.1-0.2,0-0.3,0-0.4c0-0.1-0.1-0.2-0.3-0.2l-18.1-1.8
		c-0.2,0-0.3,0.1-0.4,0.3l-4.7,14c-0.2,0.5-0.6,0.8-1.2,0.8c-0.5,0-1-0.4-1.1-0.9l-3.5-11.8c0-0.1-0.2-0.2-0.3-0.3L155.2,35.4
		L155.2,35.4z M163.5,68.6L163.5,68.6L163.5,68.6z"/>
</g>
<path class="st4" d="M145.6,58.8c-0.1,0-0.1-0.2,0-0.2c4.4-2.4,7.3-6.4,7.3-10.8c0-7.4-8.1-13.4-18-13.4c-8.8,0-13.5,1.4-15.1,2
	c-0.4,0.2-0.7,0.5-0.8,0.9c-0.5,1.9-1.7,8.2-1.7,21.1c0,13.3,1.3,23.5,1.7,26.5c0.1,0.6,0.5,1,1.1,1.1c1.8,0.3,6.4,0.9,16.2,0.9
	c10.5-0.1,18.9-6.8,18.9-15.1C155.1,66.2,151.3,61.4,145.6,58.8z M137.7,75.7c-2.5,0-4.6-2.1-4.6-4.6s2.1-4.6,4.6-4.6
	s4.6,2.1,4.6,4.6S140.3,75.7,137.7,75.7z M137.7,54.7c-2.5,0-4.6-2.1-4.6-4.6s2.1-4.6,4.6-4.6s4.6,2.1,4.6,4.6
	C142.3,52.6,140.3,54.7,137.7,54.7z"/>
<path d="M136.2,87.8c-9.8,0-14.4-0.6-16.4-0.9c-0.9-0.2-1.7-0.9-1.8-1.9c-0.4-2.8-1.7-13.2-1.7-26.6c0-12.9,1.2-19.2,1.7-21.3
	c0.2-0.7,0.7-1.3,1.4-1.6c1.7-0.6,6.5-2,15.4-2c10.4,0,18.9,6.4,18.9,14.3c0,4.1-2.4,8.1-6.5,10.8c5.4,3,8.8,7.9,8.8,13.2
	C156,80.5,147.1,87.7,136.2,87.8z M134.8,35.3c-8.6,0-13.2,1.3-14.8,1.9c-0.1,0-0.2,0.1-0.2,0.3c-0.5,2.1-1.6,8.3-1.6,20.9
	c0,13.3,1.3,23.5,1.7,26.4c0,0.2,0.1,0.3,0.3,0.3c1.8,0.3,6.4,0.9,16,0.9c9.9-0.1,18-6.4,18-14.2c0-5-3.4-9.7-9-12.2
	c-0.4-0.2-0.6-0.5-0.6-0.9s0.2-0.8,0.5-1c4.3-2.4,6.8-6,6.8-10C151.9,40.9,144.2,35.3,134.8,35.3z M146,59.3L146,59.3L146,59.3z
	 M145.9,57.9L145.9,57.9L145.9,57.9z"/>
<path d="M137.7,55.6c-3,0-5.5-2.5-5.5-5.5s2.5-5.5,5.5-5.5s5.5,2.5,5.5,5.5C143.3,53.2,140.8,55.6,137.7,55.6z M137.7,46.4
	c-2,0-3.7,1.6-3.7,3.7s1.6,3.7,3.7,3.7c2,0,3.7-1.6,3.7-3.7S139.8,46.4,137.7,46.4z"/>
<path d="M137.7,76.7c-3,0-5.5-2.5-5.5-5.5s2.5-5.5,5.5-5.5s5.5,2.5,5.5,5.5C143.3,74.2,140.8,76.7,137.7,76.7z M137.7,67.5
	c-2,0-3.7,1.6-3.7,3.7s1.6,3.7,3.7,3.7c2,0,3.7-1.6,3.7-3.7S139.8,67.5,137.7,67.5z"/>
<g>
	<g>
		<path class="st1" d="M230.4,2.5H209c-0.8,0-1.2,0.3-2.2,0.8c-4.8,2.5-14.5,10-14.6,10.1c-0.6,0.5-0.6,1-0.6,1.6
			c0.1,5.4,0.8,10.7,2.2,15.9c0.3,1.1,1.4,1.5,2.4,0.9l13.1-8.2c0.2-0.2,0.5,0.1,0.4,0.3C201.6,42.1,197,64.2,194.6,85
			c-0.1,0.9,0.5,1.5,1.3,1.7c13.3,2.2,27.9,2.1,42.2,0c0.8-0.1,1.5-0.9,1.2-1.9c-7.8-23.7-9.2-52.1-7.6-81.2
			C231.6,3,231.1,2.5,230.4,2.5z"/>
		<path d="M216.5,89.3c-7.2,0-14.1-0.5-20.8-1.6c-1.4-0.3-2.2-1.4-2.1-2.7c2.8-23.5,7.6-43.5,14.3-59.4l-11.3,7.1
			c-0.7,0.5-1.6,0.5-2.3,0.3c-0.7-0.3-1.2-0.9-1.4-1.7c-1.4-5.1-2.2-10.6-2.3-16.1c0-0.7,0-1.6,0.9-2.4l0,0c2-2,12-8.8,14.8-10.2
			l0.4-0.2c0.8-0.4,1.3-0.7,2.2-0.7h21.4c1.2,0,2.1,0.9,2.3,2v0.1v0.1c-1.8,33.4,0.7,59.8,7.6,80.9c0.2,0.7,0.1,1.4-0.2,1.9
			c-0.4,0.6-1,1-1.7,1.1C231,88.7,223.7,89.3,216.5,89.3z M209.5,22.7c0.3,0,0.5,0.1,0.7,0.2c0.4,0.3,0.6,0.9,0.4,1.4
			c-7,15.8-12.2,36.9-15,60.8c0,0.4,0.2,0.6,0.5,0.7c13.1,2.1,27.6,2.1,41.9,0c0.2,0,0.3-0.1,0.4-0.3c0,0,0.1-0.2,0-0.4
			c-7-21.2-9.5-47.9-7.7-81.4c0-0.2-0.2-0.3-0.4-0.3H209c-0.4,0-0.6,0.1-1.3,0.5l-0.4,0.2c-4.2,2.2-12.8,8.6-14.2,9.8l0,0l-0.2,0.2
			c-0.2,0.2-0.3,0.3-0.3,1c0.1,5.4,0.8,10.6,2.2,15.6c0.1,0.2,0.2,0.4,0.3,0.4c0.2,0.1,0.4,0,0.6-0.1l13.1-8.1
			C209,22.7,209.3,22.7,209.5,22.7z"/>
	</g>
</g>
<g>
	<path class="st2" d="M295.5,82.2c1.9-15.6,1.1-31.4-0.1-47.4c-0.1-0.8,0.6-1.4,1.4-1.4l18.3,1.1c0.5,0,1,0.4,1.1,0.8l8.3,15
		c0.1,0.2,0.5-0.2,0.5-0.4V35.7c0-0.7,0.5-1.2,1.2-1.3l15.3-1.1c0.8-0.1,1.5,0.6,1.4,1.4c-1.8,12.9-1.5,34.9,0.1,47.5
		c0.1,0.7-0.5,1.3-1.2,1.4l-17.2,1c-0.5,0-1-0.3-1.3-0.8l-8.9-17.1c-0.1-0.2-0.5-0.2-0.5,0.1v16.5c0,0.7-0.6,1.3-1.4,1.3l-15.9-1
		C295.9,83.6,295.4,82.9,295.5,82.2z"/>
	<path d="M324.5,85.6c-0.9,0-1.7-0.5-2-1.3l-7.6-14.6v13.7c0,0.6-0.3,1.2-0.7,1.6c-0.4,0.4-1,0.6-1.6,0.6l-15.9-1
		c-0.6,0-1.2-0.3-1.6-0.8s-0.6-1.1-0.5-1.7l0,0c1.9-15.7,1-31.9-0.1-47.2c0-0.6,0.2-1.3,0.6-1.7c0.4-0.5,1.1-0.7,1.7-0.7l18.3,1.1
		c0.8,0.1,1.6,0.6,1.9,1.4l7,12.7V35.8c0-1.1,0.9-2.1,2-2.2l15.3-1.1c0.7,0,1.3,0.2,1.8,0.7c0.4,0.5,0.6,1.1,0.6,1.7
		c-1.9,13.1-1.5,35,0.1,47.2c0.1,0.6-0.1,1.1-0.5,1.6s-1,0.8-1.6,0.8L324.5,85.6C324.6,85.6,324.5,85.6,324.5,85.6z M314.2,65.7
		c0.4,0,0.8,0.2,1.1,0.6l8.9,17.1c0.1,0.2,0.2,0.3,0.4,0.3l17.2-1c0.1,0,0.2-0.1,0.3-0.1c0.1-0.1,0.1-0.1,0.1-0.2
		c-1.6-12.4-2-34.5-0.1-47.7c0-0.1,0-0.1-0.1-0.2c-0.1-0.1-0.2-0.1-0.3-0.1l-15.3,1.1c-0.2,0-0.3,0.2-0.3,0.4V50
		c0,0.6-0.5,1.3-1.1,1.4c-0.5,0.1-1-0.1-1.2-0.5l-8.3-15.1c0-0.1-0.2-0.2-0.3-0.2l-18.3-1.1c-0.2,0-0.2,0.1-0.3,0.1
		c0,0-0.1,0.1-0.1,0.3c1.1,15.4,2,31.8,0.1,47.6l0,0c0,0.1,0,0.2,0.1,0.3c0,0.1,0.1,0.1,0.3,0.1l15.9,1c0.1,0,0.2-0.1,0.3-0.1
		c0,0,0.1-0.1,0.1-0.3V67c0-0.5,0.4-1,0.9-1.2C314,65.7,314.1,65.7,314.2,65.7z M324.1,50L324.1,50L324.1,50z M325.3,49.9
		L325.3,49.9L325.3,49.9z"/>
</g>
<g>
	<g>
		<circle class="st0" cx="389.6" cy="36.9" r="5.3"/>
		<path d="M389.6,42.7c-3.2,0-5.7-2.6-5.7-5.7c0-3.2,2.6-5.7,5.7-5.7c3.2,0,5.7,2.6,5.7,5.7C395.3,40.1,392.7,42.7,389.6,42.7z
			 M389.6,32.1c-2.6,0-4.8,2.1-4.8,4.8c0,2.6,2.2,4.8,4.8,4.8c2.6,0,4.8-2.1,4.8-4.8C394.4,34.3,392.2,32.1,389.6,32.1z"/>
	</g>
	<path d="M387.8,39.6h0.9v-2.4h0.9l1.5,2.4h0.9l-1.6-2.4c0.8-0.1,1.5-0.5,1.5-1.5c0-1.1-0.6-1.6-1.9-1.6h-2.1L387.8,39.6L387.8,39.6
		z M388.7,34.8h1.1c0.6,0,1.2,0.1,1.2,0.8c0,0.9-0.7,0.9-1.5,0.9h-0.9L388.7,34.8L388.7,34.8z"/>
</g>
<g>
	<path class="st1" d="M382,85.5l-32.8-1.3c-0.6,0-1.2-0.5-1.3-1.1c-3.2-25.1-1.3-44.7-0.1-49.2c0.1-0.6,0.6-1,1.2-1l29-1.3
		c0.7,0,1.3,0.5,1.4,1.2c0,2.2,0.3,5.2,1,9c0.1,0.8-0.5,1.4-1.3,1.4h-13.7c-0.7,0-1.3,0.6-1.3,1.3v4.6c0,0.7,0.6,1.3,1.3,1.3h8.5
		c0.6,0,1.2,0.5,1.3,1.1l1,6.9c0.1,0.8-0.5,1.5-1.3,1.5h-9.4c-0.7,0-1.3,0.6-1.3,1.3v5.4c0,0.7,0.6,1.3,1.3,1.3h15.2
		c0.7,0,1.3,0.5,1.3,1.2c0.1,4.5,0.5,9.5,1.2,14.9C383.4,84.8,382.8,85.5,382,85.5z"/>
	<path d="M382,86.4L382,86.4L382,86.4l-32.8-1.3c-1.1,0-2-0.9-2.1-2c-3.3-25.4-1.2-45.2-0.1-49.6c0.2-1,1.1-1.6,2.1-1.7l29-1.3
		c1.2,0,2.2,0.8,2.3,2v0.1c0,2.2,0.3,5.1,1,8.8c0.1,0.7-0.1,1.3-0.5,1.8s-1,0.7-1.7,0.7l0,0h-13.7l0,0c-0.1,0-0.2,0.1-0.3,0.1
		c0,0-0.1,0.1-0.1,0.3v4.6c0,0.1,0.1,0.2,0.1,0.3c0,0,0.1,0.1,0.3,0.1h8.5c1.1,0,2,0.8,2.2,1.9l1,6.9c0.1,0.6-0.1,1.3-0.5,1.8
		s-1,0.8-1.7,0.8h-9.4c-0.2,0-0.4,0.2-0.4,0.4v5.4c0,0.1,0.1,0.2,0.1,0.3c0,0,0.1,0.1,0.3,0.1h15.2c1.2,0,2.1,0.9,2.2,2.1
		c0.1,4.5,0.5,9.4,1.2,14.8c0.1,0.7-0.2,1.3-0.6,1.8S382.7,86.4,382,86.4z M382,84.5c0.2,0,0.2-0.1,0.3-0.1c0,0,0.1-0.1,0.1-0.3
		c-0.7-5.4-1.1-10.5-1.2-15c0-0.1-0.2-0.3-0.4-0.3h-15.2c-0.6,0-1.2-0.2-1.6-0.7c-0.4-0.4-0.7-1-0.7-1.6v-5.4c0-1.2,1-2.2,2.2-2.2
		h9.4c0.1,0,0.2-0.1,0.3-0.1c0,0,0.1-0.1,0.1-0.3l-1-6.9c0-0.2-0.2-0.3-0.4-0.3h-8.5c-0.6,0-1.2-0.2-1.6-0.7c-0.4-0.4-0.7-1-0.7-1.6
		v-4.6c0-0.6,0.2-1.2,0.7-1.6c0.4-0.4,1-0.7,1.6-0.7l0,0h13.7l0,0c0.1,0,0.2-0.1,0.3-0.1c0,0,0.1-0.1,0.1-0.3c-0.7-3.7-1-6.7-1-9
		c0-0.2-0.2-0.3-0.4-0.3l-29,1.3c-0.2,0-0.3,0.1-0.4,0.3c-1.1,4.3-3.1,23.7,0.2,48.9c0,0.2,0.2,0.3,0.4,0.3L382,84.5z"/>
</g>
<path class="st4" d="M266.3,32.4C251.8,32.4,240,44.8,240,60s11.8,27.6,26.3,27.6s26.3-12.4,26.3-27.6S280.8,32.4,266.3,32.4z
	 M259.7,54.2c-3.1,0-5.6-2.5-5.6-5.6s2.5-5.6,5.6-5.6s5.6,2.5,5.6,5.6C265.3,51.7,262.8,54.2,259.7,54.2z"/>
<path d="M266.3,88.5c-15,0-27.3-12.8-27.3-28.5s12.2-28.5,27.3-28.5c15,0,27.3,12.8,27.3,28.5C293.5,75.7,281.3,88.5,266.3,88.5z
	 M266.3,33.3c-14,0-25.4,12-25.4,26.7s11.4,26.7,25.4,26.7s25.4-12,25.4-26.7S280.3,33.3,266.3,33.3z"/>
<path d="M259.7,55.2c-3.6,0-6.5-2.9-6.5-6.5s2.9-6.5,6.5-6.5s6.5,2.9,6.5,6.5C266.3,52.3,263.3,55.2,259.7,55.2z M259.7,44
	c-2.6,0-4.7,2.1-4.7,4.7c0,2.6,2.1,4.7,4.7,4.7s4.7-2.1,4.7-4.7C264.4,46.1,262.3,44,259.7,44z"/>
</svg>
