<svg enable-background="new 0 0 1024 781.4" viewBox="0 0 1024 781.4" xmlns="http://www.w3.org/2000/svg"><g fill="#223d72"><path d="m289.2 407.4c0-32.3 0-64.6 0-96.8 0-11.3 1.2-12.5 12.2-14.4 5.9-1 11.8-2.1 17.7-3.3 11.5-2.4 13.6-1.8 18.8 8.2 13.7 26.3 27.1 52.8 40.7 79.2 3.5 6.7 7.6 13.1 11.4 19.6 3-6.7 6.1-13.3 9-20 14-32.4 28.2-64.7 41.7-97.3 4.6-11.1 11.7-17 23.5-18.3 7-.8 13.9-2.7 20.8-3.9 5.4-1 7.3.3 8.1 5.5.4 2.4.2 5 .2 7.4 0 63.5.1 127 .1 190.5 0 2.1.1 4.3-.1 6.4-.3 4.8-2.4 7.9-7.4 8.9-10.8 2-21.4 4.5-32.2 6.2-9.3 1.5-10.6.3-10.6-9.2-.1-25.9-.1-51.8-.1-77.7 0-4.2-.4-8.4-.7-12.6-1.9 3.7-4 7.3-5.7 11-7.6 17.8-15.5 35.6-22.6 53.7-3.6 9.2-9.4 14.5-19.3 15.4-4.9.4-9.7 1.6-14.6 2.4-3.9.6-6.9-.5-8.9-4.2-1.5-2.8-3.3-5.4-4.7-8.3-7.5-14.8-14.9-29.7-22.5-44.5-1.4-2.7-3.3-5.2-5-7.8-.1 2.8-.3 5.7-.3 8.5 0 27 0 53.9.1 80.9.1 18.5-1.3 14.2-14.5 17.6-9.2 2.4-18.8 3.4-28.1 5.4-4.8 1-6.7-1-6.9-5.4-.1-2.5-.1-5-.1-7.4 0-31.8 0-63.7 0-95.7z"/><path d="m682.6 106.2c-1.5 14.1-1.6 28.4-4.6 42.1-8.6 38.6-32.5 63.4-70.8 74.1-14.4 4-29 6.5-44 5.5-23.4-1.6-40.9-12.3-51.1-33.9-7.2-15.3-10.4-31.6-11.5-48.1-1.2-19.1-1.6-38.2 1.6-57.3 7.1-42.4 34-77.5 84.2-86.2 14.4-2.5 28.7-3.9 43.2-.1 19.5 5 33.2 16.7 41 35.3 8.8 21.3 11.1 36.7 12 68.6zm-54.2 1.5c-.1-14.1-.2-28.2-4.6-41.9-4.2-13.1-13.8-20.7-30.4-18.3-19.9 3-31.3 14.2-35.7 35.2-4.7 22.3-4.5 44.9-1.6 67.4.8 6.2 3.1 12.4 5.8 18 4.8 9.7 13.9 14.1 24.6 12.6 18.9-2.5 31.7-12.2 37.3-31.1 4.2-13.7 4.6-27.8 4.6-41.9z"/><path d="m1023.8 265.4c0 32.6-.1 65.2 0 97.9 0 10.6.4 10.4-10.9 13.1-9.9 2.4-20.1 3.9-30.1 5.8-8.9 1.7-10 1.1-10.1-7.9-.2-23-.2-46.1-.3-69.1 0-2.1-.2-4.3 0-6.4.4-4.8-2.1-5.3-5.9-4.5-15.9 3.3-31.7 6.8-47.7 9.7-5 .9-6.3 2.6-6.2 7.4.3 24.1.3 48.2.3 72.3 0 11.6-.8 12.4-12 14.5-10.1 1.9-20 4.2-30.1 6-8.1 1.5-9.2.5-9.3-7.9-.1-13.5 0-26.9-.1-40.4-.3-51.4-.7-102.8-1-154.2 0-2.5-.3-5 0-7.4.6-4.6 2.6-7.9 7.7-8.8 11.8-2.1 23.5-4.7 35.4-6.5 7.7-1.2 8.7-.3 8.8 7.6.3 20.9.3 41.8.4 62.8.1 10.4.1 10.5 10.5 8.6 14.6-2.7 29.1-5.9 43.7-8.3 4.6-.8 5.7-2.6 5.7-6.8-.2-20.9-.3-41.8-.4-62.8-.1-15.8-.7-14.2 14.6-17.7 9.6-2.2 19.4-3.9 29.1-5.7 5.5-1 7.1.2 7.5 5.7.3 3.5.1 7.1.1 10.6v92.5c.2-.1.3-.1.3-.1z"/></g><path d="m500.2 641c0 13.8.2 27.7-.1 41.5-.1 4.5-1 9-2.1 13.4-1.1 4.6-4.1 7.7-8.5 10.1-23 12.3-47.3 20.4-73.1 24.6-13.6 2.2-26.3 2.1-39.3-2.2-15.1-5-25.5-15.3-31.5-29.2-6.9-16.4-11.3-33.4-12.3-51.7-.4-7.2-1.4-15.6-.9-23.2 1.7-22.6 3-45.4 14.4-66 14-25.3 34.6-41.7 62.6-49.6 21.3-6 42.9-6.7 64.8-6.2 2.4.1 4.9.6 7.2 1.2 9.8 2.9 11.5 5.1 10.3 15-.9 7.2-2.5 14.4-4.4 21.5-.5 1.9-2.9 4.1-4.9 4.6-5.1 1.2-10.3 1.6-15.5 2.3-12.8 1.7-25.7 2.9-38.4 5.2-19.4 3.4-30.5 16.3-36.5 34.1-2 5.9-3.7 12.2-4 18.3-1 21.1-1.7 42.3 6.4 62.5 4 10.1 14.2 18.6 29.9 14.9 7.1-1.7 14.2-3.6 21.3-5 4.3-.9 5.8-3.2 5.7-7.4-.1-8.5-.3-17 0-25.5.2-5.1-2.2-6.1-6.4-5.5-5.2.7-10.4 1.9-15.6 2.1-6.1.3-7.4-1.1-7.6-7.3-.2-8.1-.3-16.3 0-24.5.2-6.4 3.3-9.5 9.4-10.7l52.2-10.5c.7-.1 1.4-.1 2.1-.2 13-.3 15.2-1.8 14.8 13-.2 13.5 0 27 0 40.4z" fill="#96c2d8"/><path d="m522.1 361.6c0-31.2 0-62.4 0-93.6 0-2.5-.2-5 .1-7.4.8-4.8 2.8-8.3 8.5-9.3 14.2-2.5 28.4-5.5 42.6-8.3 23.5-4.6 47.1-9.2 70.6-13.8 20.2-4 17.8-.9 17.7 13.7 0 6.4.2 12.8 0 19.1-.2 7.4-1.8 9.2-9 10.7-21.4 4.3-42.9 8.5-64.4 12.7-1 .2-2.1.2-3.2.4-10.8 2.1-10.8 2.1-10.7 13.3 0 7.4.2 14.9.1 22.3-.1 3.9 1.3 4.6 5.1 3.8 19-4 38-7.7 57.1-11.5.3-.1.7-.1 1-.2 12.7-2.3 13.7-1.5 13.7 11.9 0 7.1.1 14.2 0 21.3-.1 8.4-1 9.5-9.4 11.2-20.4 4.2-40.8 8.4-61.2 12.2-4.9.9-6.4 2.4-6.3 7.3.4 11.3.2 22.7.1 34 0 3.8 1.4 5 5.1 4.2 13.5-2.7 27-5.2 40.5-7.8 11.4-2.2 22.8-4.7 34.2-6.8 7.5-1.4 9.5.2 9.7 8.1.2 8.9.2 17.7.1 26.6-.1 7.8-.7 8.7-8.9 10.5-12.1 2.7-24.2 4.9-36.3 7.3-28 5.5-56.1 11-84.1 16.5-1.7.3-3.5.5-5.3.7-4.6.7-6.6-1.8-7.1-5.8-.3-2.4-.2-4.9-.2-7.4 0-31.9 0-63.8 0-95.7 0-.2 0-.2-.1-.2z" fill="#223d72"/><path d="m0 229c0-32.3 0-64.5 0-96.8 0-12.1.7-12.7 12.7-15 38.1-7.4 76.1-15 114.2-22.5 1.7-.3 3.5-.6 5.2-.7 3.9-.3 6.2 1.3 6.2 5.4v31.9c0 4.7-2.4 6.9-7 7.7-9.4 1.7-18.6 3.9-28 5.8-15.6 3-31.2 5.9-46.8 8.8-3 .6-5.5 1.2-5.5 5 .1 9.9.1 19.9.1 29.8 0 4.7 3.3 3.8 5.9 3.4 12.1-2.2 24.3-4.7 36.4-7.1 8.6-1.7 17.3-3.6 25.9-5.3 6.9-1.3 8.4-.1 8.7 6.6.4 8.1.8 16.3.8 24.4 0 11.1-1.4 12.9-12.1 15-19.4 3.8-38.8 7.4-58.2 11.1-7.2 1.4-7.3 1.3-7.3 8.8-.1 11 .1 22-.1 33-.1 4.5 1.6 5.2 5.8 4.4 24.9-5 49.9-9.8 74.8-14.5 7.2-1.4 9.5 0 9.9 6.6.5 9.5.4 19.2 0 28.7-.2 6.1-2.6 8.1-9.4 9.5-26 5.1-52 10-77.9 15.1-12.8 2.5-25.6 5.1-38.4 7.6-2.1.4-4.2.7-6.3 1-9.2.9-9.8.5-9.9-8.7.3-33.1.3-66 .3-99z" fill="#223d72"/><path d="m327.5 737.3c.7 5.9-.5 7.5-4.1 8.2-9.6 1.7-19.1 4-28.6 6-1.4.3-2.8.2-4.2.5-9.4 2.1-13.3-.1-15.9-9.5s-5.7-18.7-7.9-28.2c-1.1-5.1-3.7-6.2-8.1-5.3-12 2.2-24 4.4-36 6.8-4.8.9-9.4 3.1-14.2 3.4-6 .3-7.3 3.7-8.6 8.5-3.2 12.1-7.3 24-10.1 36.2-1.5 6.3-5.6 9.3-10.6 10.5-11.9 2.8-23.9 4.7-36 6.8-4 .7-5.8-1.1-4.8-5.8 1.5-7.1 4-14.1 6-21.1 10.8-38.2 21.5-76.5 32.3-114.7 7.1-25.2 14.6-50.2 21.2-75.5 2.7-10.4 9.2-15 18.9-16.8 11.7-2.1 23.3-4.4 35-6.5 6.9-1.2 9.6.6 12.2 8.3 8.2 24.1 16.3 48.3 24.5 72.4 12.5 37 25 74.1 37.4 111.1.8 2.5 1.7 4.8 1.6 4.7zm-109-60.2c9.4-2 19.6-4.5 29.9-6 5.4-.8 5.6-3.6 4.6-7.3-5.5-20.5-11.2-41-16.9-61.4-.3-1.2-1.7-2.1-2.6-3.2-.5 1.1-1.3 2-1.6 3.2-6.1 23.6-12 47.2-18.2 70.8-1.1 4.2 1.5 3.7 4.8 3.9z" fill="#96c2d8"/><path d="m199 80.7c1.8 1.7 4.8 3.6 6.4 6.3 5.4 9.5 10.4 19.3 15.5 29 3.4 6.6 6.7 13.2 10.1 19.8.5.9 1.5 1.5 2.2 2.2.5-.9 1-1.8 1.4-2.7 7.9-18.5 16.1-36.9 23.5-55.5 3.4-8.6 9-12.5 18-13.8 12.5-1.8 24.9-4.9 37.4-7.1 2.2-.4 5.5-.1 6.6 1.2 1 1.3.4 4.7-.6 6.6-12.2 24.3-24.6 48.5-37 72.7-4.8 9.4-9.4 19-14.7 28.1-3.3 5.5-3.2 9.6.4 15.2 16.7 25.4 32.8 51.2 49.3 76.7 10.4 16.1 6.9 15.9-8.3 19.1-9.3 2-18.7 3.4-28.1 5-8.6 1.5-10.4.8-14.5-6.6-5.9-10.8-11.6-21.8-17.4-32.8-3.3-6.3-6.4-12.6-9.7-18.8-.6-1.1-1.5-2.1-2.3-3.1-.7 1.2-1.6 2.4-2.1 3.6-8.1 19.5-16.5 39-24 58.7-4 10.5-10.5 15.9-21.5 17.4-10.8 1.5-21.5 4.1-32.2 6.1-2.1.4-4.2.5-6.3.5-3.3 0-4.4-2.3-3.7-5s2.1-5.2 3.4-7.7c16.8-33.1 33.3-66.3 50.5-99.1 4-7.7 3.5-13.2-1-20.2-14.9-23.2-29.3-46.7-43.9-70.1-.6-.9-1.1-1.8-1.7-2.7-8.4-12.4-1.7-14.5 7.4-16.2 10-1.9 20.1-3.8 30.1-5.7 1.7-.1 3.5-.4 6.8-1.1z" fill="#223d72"/><path d="m336.4 163c0-32.2 0-64.5 0-96.7 0-11.2 1.5-12.8 12-14.9 21.5-4.1 42.9-8.4 64.4-12.3 10.8-1.9 21.8-2.9 32.6-.5 15.7 3.4 28.2 11.7 35.4 26.2 14.1 28.2 11.7 65.9-14.6 89.6-13 11.7-28.3 18.4-45.1 22.2-8.3 1.8-16.6 3.1-25 4.7-8.3 1.6-8.4 1.7-8.4 10.2v57.4c0 2.5-.1 5-.1 7.4-.1 4.5-2.1 7-6.8 7.9-12.5 2.3-24.9 5-37.3 7.5-4.5.9-6.7-1.3-7.1-5.6-.2-2.5-.1-5-.1-7.4.1-31.9.1-63.8.1-95.7zm51.3-49.2c0 6.3-.1 12.7 0 19 .1 5.8.7 6.4 5.9 5.4 6.9-1.2 13.9-2.3 20.6-4.4 11.7-3.6 20-11.4 21.3-23.7 1.6-15-3.8-27.7-21.4-26.2-7.3.6-14.5 2.5-21.8 3.8-3.2.6-4.8 2.3-4.7 5.8.2 6.9.1 13.6.1 20.3z" fill="#223d72"/><path d="m683.3 323.2c-.5-15.7.6-32 5-47.7 10.3-36.8 34.3-60.3 70.9-70.6 19.1-5.4 38.9-7.7 58.8-6.6 5.6.3 11.3 1.2 16.7 2.8 6.6 1.9 8.6 6.2 7.2 13.2-1.1 5.9-2.3 11.8-3.6 17.6-1.9 8.9-3.6 10-12.8 11.1-15.1 1.8-30.2 3.6-45.2 5.8-21.6 3.1-34.1 17-39 37-5.2 21.5-4.8 43.6-.2 65.3 1.1 5.4 3.9 10.6 6.8 15.4 4.3 7.2 11 10.5 19.4 11 12.3.7 23.8-2.7 35.4-5.6 9.6-2.4 19-5.4 28.5-8 7.1-1.9 9.5-.6 11.4 6.6 1.2 4.4 1.8 9 2.8 13.5 2.1 9.7 1.1 13.7-7.4 18.5-8.8 5.1-18 9.8-27.5 13.5-18.5 7.2-37.6 12.3-57.7 12.2-28.9-.2-48.2-12.9-59.3-39.7-7.7-18.6-10.2-38.1-10.4-58 .2-2.4.2-4.5.2-7.3z" fill="#223d72"/></svg>