<?xml version="1.0" encoding="UTF-8" standalone="no"?><!DOCTYPE svg PUBLIC "-//W3C//DTD SVG 1.1//EN" "http://www.w3.org/Graphics/SVG/1.1/DTD/svg11.dtd"><svg width="100%" height="100%" viewBox="0 0 1331 464" version="1.1" xmlns="http://www.w3.org/2000/svg" xmlns:xlink="http://www.w3.org/1999/xlink" xml:space="preserve" xmlns:serif="http://www.serif.com/" style="fill-rule:evenodd;clip-rule:evenodd;stroke-linejoin:round;stroke-miterlimit:1.41421;"><path d="M353.65,241.98c0.42,2.34 0.15,5.47 0.15,8.08l0,62.48c-0.5,0.3 -0.46,0.57 -1.32,0.59c-0.47,0.39 -1.51,0.09 -2.21,0.29l0,0.15l-1,0l0,0.11l-1,0l0,0.15l-1.17,0c-2,0.57 -4.51,0.46 -6.47,1l-2.21,0.14l0,0.15l-1,0l0,0.14l-1,0l0,0.15l-1.17,0l0,0.14l-1,0l0,0.15l-1.18,0c-2.28,0.66 -5.21,0.51 -7.5,1.18l-4.41,0.44c-2,0.57 -4.5,0.46 -6.47,1l-2.21,0.15c-1.27,0.37 -3,0.37 -4.26,0.73l-1.18,0l0,0.14l-1,0l0,0.15l-1,0l0,0.14l-1.18,0c-0.621,0.184 -1.263,0.285 -1.91,0.3c-0.26,0.39 -0.58,0.34 -0.73,0.88c-0.22,0.25 -0.15,0.85 -0.15,1.32l0,16c0.091,1.275 0.041,2.556 -0.15,3.82l0,42.73c-0.117,1.711 -0.117,3.429 0,5.14l0.44,0.3l0,0.15l0.3,0l0,0.15l1.32,-0.15c1.34,0.032 2.679,-0.065 4,-0.29l2.35,0l0,-0.15l1.23,0l3,-0.15l0,-0.15l1.62,0l2.94,-0.14l0,-0.15l15.73,-0.88l0,-0.15l2.21,0l0,-0.15l2.94,-0.15l1.56,0l0,-0.15l2.21,0l0,-0.08l2.2,0l0,-0.15l2.94,-0.14l1.65,0l0,-0.15l2.21,0l0,-0.15l2.94,-0.15l1.62,0l0,-0.15l2.21,0l0,-0.11l4,-0.15l1.32,-0.14l0,0.14l0.59,0.15c0.312,2.387 0.409,4.796 0.29,7.2l0,64.68c0,1.26 0.29,4.07 -0.44,4.55c-0.45,0.44 -1.63,0.3 -2.5,0.3l-143.69,0c-1.235,0.099 -2.478,-0.002 -3.68,-0.3c-0.63,-1.44 -0.29,-5.57 -0.29,-7.64l0,-313l0.15,0l0,-0.3l0.15,0l0.12,-0.49c0.47,-0.1 0.28,-0.21 0.44,-0.29l0.44,0l0,-0.15l0.88,-0.15l0,-0.15l0.44,0l0,-0.15l0.44,0l0,-0.11l0.44,0l0,-0.15l0.44,0l0,-0.15l0.48,0l0,-0.15l0.44,0l0,-0.15l0.88,-0.15l0,-0.15l0.44,0l0,-0.1l0.44,0l0,-0.15l0.44,0l0,-0.15l0.59,0l0,-0.14l0.88,-0.15l0,-0.15l0.44,0l0,-0.15l0.45,0l0,-0.11l0.44,0l0,-0.15l0.44,0l0,-0.15l0.44,0l0,-0.15l0.44,0l0,-0.15l0.88,-0.15l0,-0.15l0.44,0l0,-0.15l0.44,0l0,-0.15l0.48,0l0,-0.15l0.44,0l0,-0.15l1,-0.15c1.39,-0.55 3,-1.06 4.41,-1.62l0.88,-0.15l0,-0.15l0.59,0c6.12,-2.23 12.69,-4.1 18.82,-6.32l1.47,-0.29c3.42,-1.36 7.31,-2.31 10.73,-3.68l1.47,-0.29l0,-0.15l0.88,-0.15l0,-0.15l0.44,0l0,-0.15l0.44,0l0,-0.15l0.43,0l0,-0.1l0.44,0l0,-0.15l0.44,0l0,-0.15l0.44,0l0,-0.15l0.88,-0.14l0,-0.15l0.44,0l0,-0.15l0.44,0l0,-0.15l0.44,0l0,-0.15l0.48,0l0,-0.15l0.59,0l0,-0.15l0.88,-0.15l0,-0.15l0.44,0l0,-0.21l0.44,0l0,-0.15l0.44,0l0,-0.15l0.44,0l0,-0.15l0.44,0l0,-0.15l0.88,-0.15l0,-0.15l0.45,0l0,-0.1l0.44,0l0,-0.15l0.44,0l0,-0.15l0.44,0l0,-0.15l0.59,0c8.34,-3 17.23,-5.5 25.58,-8.53l0.59,0l0,-0.15l0.88,-0.15l0,-0.15l0.44,0l0,-0.15l0.44,0l0,-0.15l0.44,0l0,-0.15l0.44,0l0,-0.12l0.44,0l0,-0.15l0.44,0l0,-0.15l0.88,-0.15l0,-0.15l1.32,-0.3l0,-0.1l1.47,-0.29c3.42,-1.36 7.31,-2.31 10.73,-3.67l1.47,-0.3c6.12,-2.23 12.69,-4.1 18.82,-6.32l1,-0.15c1.39,-0.55 3,-1.06 4.41,-1.62l1.32,-0.29l0,-0.15l0.59,0l0,-0.15l0.88,-0.15l0,-0.15l0.44,0l0,-0.15l0.44,0l0,-0.15l0.44,0l0,-0.15l0.44,0l0,-0.15l0.44,0l0,-0.16l0.44,0l0,-0.15l0.88,-0.14l0,-0.15l1.32,-0.29l0,-0.15l1.91,-0.44l0,-0.15l1.32,-0.3c0.962,-0.493 2.012,-0.792 3.09,-0.88c0.107,0.223 0.256,0.424 0.44,0.59c-0.1,16.467 -0.197,32.933 -0.29,49.4l0,17.49c-0.053,0.587 -0.103,1.173 -0.15,1.76l-0.3,0.15l-0.29,0.44l-0.3,0l0,0.15l-0.44,0l0,0.15l-0.44,0l0,0.15l-0.59,0l0,0.15l-0.59,0l0,0.15l-0.44,0l0,0.15l-0.59,0c-3,1.07 -6.42,1.73 -9.41,2.79l-0.59,0l0,0.13l-0.59,0l0,0.15l-0.44,0l0,0.15l-0.59,0c-1.79,0.65 -3.95,1.13 -5.74,1.77l-1.18,0.15l0,0.14l-0.44,0l0,0.15l-1,0.15l0,0.15l-1.62,0.29l0,0.15l-1,0.15l0,0.15l-1.18,0.15c-3.83,1.38 -8.21,2.15 -12.05,3.53l-3.68,0.88l0,0.15l-1.18,0.15l0,0.15l-0.44,0l0,0.15l-1,0.15l0,0.14l-1.62,0.3l0,0.14l-1,0.15l0,0.15l-0.59,0l0,0.15l-0.59,0l0,0.11l-0.44,0l0,0.15l-0.59,0c-2.65,1 -5.72,1.55 -8.38,2.5l-0.59,0l0,0.15l-1.62,0.3l0,0.15l-0.44,0l0,0.15l-0.88,0.15l-0.15,0.29c-0.77,0.74 -0.59,1.36 -0.59,2.79l0,66.17c0,0.81 -0.11,1.79 0.29,2.2c0.17,0.17 0,0.06 0.29,0.15c0.42,0.38 1.91,-0.15 2.35,-0.29l0.73,0c2.52,-0.81 5.56,-1 8.09,-1.77l2.21,-0.29c0.87,-0.28 2.07,-0.46 2.94,-0.74l0.74,0l0,-0.15l0.74,0l0,-0.14l0.73,0l0,-0.15l0.74,0l0,-0.14l0.74,0c3,-0.95 6.56,-1.13 9.56,-2.06l1.62,-0.15c0.87,-0.26 2.07,-0.46 2.94,-0.73l5.88,-1c1.82,-0.57 4.06,-0.76 5.88,-1.32l1.47,-0.14l0,-0.15l1.47,-0.14c1.15,-0.451 2.392,-0.619 3.62,-0.49Z" style="fill:#008f8b;"/><path d="M1121.92,208.9c-31.59,-8.52 -42,-11.59 -65.86,-17.2c-0.58,1.14 -0.29,4.05 -0.29,5.73l0,62.18c0.17,0.17 0.06,0 0.15,0.29l0.44,0.3c0.22,0.11 4.73,1 56,11.32c0.16,0.274 0.358,0.523 0.59,0.74l0,58.06l-0.3,0.15c-0.332,0.257 -0.757,0.362 -1.17,0.29l0,-0.15l-1,0l0,-0.14l-1.18,0c-0.93,-0.27 -2.3,-0.32 -3.23,-0.59l-1.18,0l0,-0.15l-1,0l0,-0.15l-1.17,0c-0.914,-0.236 -1.848,-0.384 -2.79,-0.44c-0.895,-0.065 -1.782,-0.213 -2.65,-0.44l-1.18,0c-0.93,-0.27 -2.3,-0.31 -3.23,-0.59l-1.18,0c-1.26,-0.37 -3,-0.37 -4.26,-0.73l-1.18,0c-1.63,-0.48 -3.8,-0.42 -5.44,-0.89l-3.38,-0.3l0,-0.14l-1,0l0,-0.15l-1.18,0c-2.33,-0.67 -5.31,-0.5 -7.64,-1.17l-2.21,-0.15c-2,-0.59 -4.6,-0.45 -6.61,-1l-1.23,0l0,-0.15l-1,0l0,-0.15l-0.29,0l0,0.15c-0.43,0.1 -0.48,0.16 -0.59,0.59c-0.33,0.37 -0.15,2.91 -0.15,3.67l0,61.89c0,1.41 -0.31,3.43 0.59,4l0,0.1l3.53,0.29l1.18,0l0,0.15l2.35,0l0,0.14l2.93,0.15l1.45,0l0,0.15l2.2,0l0,0.12l2.21,0l0,0.15l2.21,0l0,0.14l2.21,0l0,0.15l2.94,0.14l1.47,0l0,0.15l2.21,0l0,0.14l2.35,0l0,0.15l4.41,0.15l0,0.15l2.2,0l0,0.15l2.94,0.14l1.47,0l0,0.15l2.18,0l0,0.14l2.2,0l0,0.15l2.94,0.15l1.47,0l0,0.15l2.39,0l0,0.15l2.94,0.14l1.47,0l0,0.15l2.95,0.14l1.47,0l0,0.15l2.17,0l0,0.15l2.94,0.15c0.159,0.271 0.358,0.517 0.59,0.73l0,64c-0.274,0.159 -0.524,0.358 -0.74,0.59l-153.79,0c-2.057,0.111 -4.12,0.065 -6.17,-0.14c-0.14,-0.27 -0.2,-0.23 -0.3,-0.59c-0.26,-0.3 -0.15,-1.22 -0.15,-1.76l0,-365.21c0.14,-0.08 0.25,-0.27 0.29,-0.29l0.29,0l0,-0.15c0.55,-0.19 1.32,0.32 1.62,0.44l0.88,0.15l0,0.15l0.44,0l0,0.15l0.44,0l0,0.15l0.44,0l0,0.15l0.44,0l0,0.15l0.44,0l0,0.15l0.88,0.15l0,0.15l0.44,0l0,0.15l0.44,0l0,0.15l0.44,0l0,0.15l0.44,0l0,0.15l0.44,0l19.85,6.61l0.88,0.15l0,0.15l0.44,0l0,0.14l0.44,0l0,0.14l0.44,0l0,0.15l0.44,0l0,0.15l0.59,0l0,0.15l0.88,0.15c1.38,0.55 3,1.06 4.41,1.62l0.44,0l0,0.15l0.44,0l0,0.15l0.44,0l0,0.15l0.44,0l0,0.15l0.59,0l0,0.15l0.89,0.15l0,0.15l0.44,0l0,0.15l0.44,0l0,0.15l0.44,0l0,0.15l0.44,0l0,0.14l0.44,0l0,0.15l0.88,0.15l0,0.14l0.88,0.15l0,0.15l0.88,0.15l0,0.11l0.44,0l0,0.15l0.44,0l0,0.15l0.44,0l0,0.15l0.59,0l0,0.15l0.88,0.15c1.39,0.55 3,1.06 4.41,1.62l0.45,0l0,0.15l0.44,0l0,0.15l0.44,0l0,0.15l0.44,0l0,0.15l0.59,0l0,0.15l0.89,0.15l0,0.15l0.44,0l0,0.15l0.44,0l0,0.15l0.44,0l0,0.15l0.44,0l0,0.13l0.44,0l0,0.15l0.89,0.14l0,0.15l0.88,0.15l0,0.15l0.88,0.15l0,0.11l0.44,0l0,0.15l0.44,0l0,0.15l0.44,0l0,0.15l0.59,0l0,0.15l1.32,0.29c1.53,0.61 3.32,1.15 4.85,1.76l1.47,0.3c9.66,3.52 19.89,6.35 29.55,9.85l0.59,0l0,0.15l0.44,0l0,0.15l0.44,0l0,0.15l0.45,0l0,0.15l0.44,0l0,0.15l0.88,0.15l23.82,7.94l5.88,1.76l0,0.15l0.44,0l0,0.15l0.44,0l0,0.15l0.44,0l0,0.15l0.44,0l0,0.15l0.44,0l0,0.15l0.89,0.15l0,0.15l0.88,0.14l0,0.15l0.88,0.15l0,0.15l1,0.15c2,0.78 4.21,1.43 6.17,2.21l1,0.15l0,0.15l0.89,0.15c1.39,0.55 3,1.07 4.41,1.62l0.44,0l0,0.15l0.44,0l0,0.15l0.44,0l0,0.08l0.44,0l0,0.15l1,0.15c1.68,0.66 3.61,1.25 5.29,1.91c0.94,0.37 2.08,0.28 2.35,1.32c0.34,0.38 0.15,3.17 0.15,4l0,51.31c0.124,1.792 0.111,3.59 -0.04,5.38Z" style="fill:#008f8b;"/><path d="M605.19,236.54l0,0.29c0.418,0.069 0.819,0.218 1.18,0.44l0.44,0l0,0.14l0.29,0l0,0.15l0.46,0l0,0.12l0.59,0.15l0,0.15l0.41,0l0,0.15l0.29,0l0,0.15l0.59,0.14l0,0.15l0.44,0l0,0.14l0.88,0.3l0,0.15l0.29,0l0,0.15l0.3,0l0,0.14l0.29,0l0,0.15l0.29,0l0.3,0.29l0.33,0l0.15,0.3l0.3,0l0,0.15l0.29,0l0.29,0.3l0.3,0l0.15,0.29l0.59,0.15l0.15,0.3l0.3,0l0,0.14l0.29,0l0.15,0.3l0.29,0l0.15,0.3l0.29,0l0.15,0.3l0.3,0l0.15,0.3l0.3,0l0,0.14l0.44,0.15l0.15,0.29l0.29,0l0.15,0.3l0.3,0l0.29,0.44l0.29,0l0.3,0.44l0.2,0l0.44,0.59l0.29,0l0.29,0.44l0.44,0.15l0.73,0.88l0.3,0l1.32,1.47l0.3,0l0.29,0.45l1.18,1l0,0.29l1.62,1.47l0,0.3l0.74,0.59l0,0.29l0.59,0.44l0,0.3l0.59,0.44l0,0.3l0.44,0.29l0,0.29l0.44,0.3l0,0.3l0.29,0.15l0,0.3l0.3,0.15l0,0.3l0.29,0.14l0,0.3l0.3,0.15l0,0.29l0.29,0.15l0,0.29l0.3,0.15l0.15,0.59l0.3,0.14l0.14,0.59l0.3,0.14l0.29,0.89l0.3,0.14l0,0.3l0.29,0.3l0,0.3l0.15,0l0,0.29l0.15,0l0,0.3l0.16,0l0,0.27l0.15,0l0.3,0.88l0.15,0l0.15,0.73l0.15,0l0,0.3l0.1,0l0,0.44l0.14,0l0.15,0.59l0.15,0l0,0.44l0.15,0l0,0.29l0.15,0l0.3,1.32l0.15,0l0,0.44l0.15,0l0,0.44l0.15,0l0,0.44l0.15,0l0,0.44l0.15,0l0,0.44l0.15,0l0.15,1l0.15,0l0,0.59l0.14,0l0,0.59l0.15,0l0,0.73l0.15,0l0,0.59l0.15,0l0,0.73l0.17,0l0.3,2.8l0.15,0l0,1.32l0.15,0l0,2.06c0.45,1.61 0.15,4.55 0.15,6.47l0,177.18c-0.222,0.109 -0.422,0.258 -0.59,0.44l-99.72,0c-0.64,0 -1.65,0.14 -2.06,-0.14c-0.41,-0.28 -0.29,-1.84 -0.29,-2.65l0,-172c-0.17,-0.17 -0.06,0 -0.15,-0.29c-0.27,-0.14 -0.23,-0.21 -0.59,-0.3l0,-0.15l-2.65,0.29c-1.87,0.56 -4.3,0.48 -6.17,1l-2.06,0.15c-1.92,0.57 -4.41,0.46 -6.32,1l-2.06,0.14c-1.55,0.46 -3.59,0.43 -5.15,0.88l-2.06,0.14c-1.23,0.36 -2.89,0.38 -4.12,0.74l-1,0c-0.93,0.27 -2.3,0.31 -3.23,0.59l-1,0l0,0.15l-1,0l0,0.15l-1,0l0,0.15l-1,0c-1.23,0.36 -2.89,0.38 -4.12,0.73l-1,0l0,0.15l-0.74,0l-0.15,0.3l-0.29,0l-0.15,0.59l-0.15,0l0,167.94c-0.222,0.109 -0.422,0.258 -0.59,0.44l-96.29,0c-1.421,0.06 -2.846,0.014 -4.26,-0.14c-0.14,-0.27 -0.2,-0.23 -0.29,-0.59c-0.36,-0.41 -0.15,-1.95 -0.15,-2.65l0,-369.87c0,-1.41 -0.32,-3.8 0.29,-4.71c0.41,-0.6 2.7,-1.14 3.53,-1.47l0.44,0c3,-1.19 6.42,-2 9.41,-3.23l1.47,-0.29l0,-0.15l0.44,0l0,-0.15l0.44,0l0,-0.15l0.44,0l0,-0.15l0.44,0c2.56,-1 5.53,-1.77 8.08,-2.79l1.91,-0.44c7.47,-2.72 15.46,-4.94 22.93,-7.65l1,-0.15l0,-0.11l0.88,-0.15l0,-0.15l0.44,0l0,-0.15l0.51,0l0,-0.15l0.44,0l0,-0.14l0.44,0l0,-0.15l0.44,0l0,-0.15l0.88,-0.15l0,-0.15l0.88,-0.15l0,-0.15l0.59,0l0,-0.15l0.44,0l0,-0.15l0.44,0l0,-0.15l0.45,0l0,-0.15l0.44,0c2.56,-1 5.53,-1.77 8.08,-2.79l1.91,-0.44l0,-0.14l0.44,0l0,-0.15l0.44,0l0,-0.15l0.44,0l0,-0.15l0.44,0c2.56,-1 5.53,-1.77 8.09,-2.79l1.91,-0.44c7.47,-2.72 15.46,-4.94 22.93,-7.64l1.47,-0.3c3,-1.19 6.42,-2 9.41,-3.23l1.47,-0.29c9.4,-3.43 19.4,-6.15 28.81,-9.56l1,-0.15l0,-0.15l0.88,-0.15l0,-0.15l0.44,0l0,-0.09l0.44,0l0,-0.15l0.44,0l0,-0.15l0.44,0l0,-0.15l0.44,0l0,-0.15l0.88,-0.15l0,-0.15l0.88,-0.15l0,-0.15l0.59,0c5.54,-2 11.51,-3.73 17.05,-5.73l1,-0.15l0,-0.15l0.88,-0.15l0,-0.15l0.44,0l0,-0.15l0.44,0l0,-0.15l0.48,0l0,-0.17l0.44,0l0,-0.15l0.44,0l0,-0.15l0.88,-0.15l0,-0.15l0.88,-0.15l0,-0.15l0.59,0l0,-0.1l0.44,0l0,-0.15l0.44,0l0,-0.15l0.44,0l0,-0.15l0.45,0c2.56,-1 5.53,-1.77 8.09,-2.79l1.91,-0.44c6.32,-2.3 13.06,-4.19 19.41,-6.47l0.59,0l0,-0.15l0.44,0l0,-0.15l0.56,0l0,-0.15l1.32,-0.15l0,-0.15l2.79,-0.29l0,-0.15l1.47,0c2.196,-0.309 4.424,-0.309 6.62,0l1.32,0l0,0.15l1.17,0l0,0.19l1.62,0.15l4.85,1.32l0,0.15l0.3,0l0,0.15l0.88,0.15l0,0.08l0.3,0l0,0.15l0.44,0l0,0.15l0.29,0l0,0.15l0.73,0.15l0,0.15l0.88,0.3l0,0.15l0.3,0l0,0.15l0.29,0l0,0.15l0.3,0l0,0.15l0.29,0l0.3,0.29l0.29,0l0.15,0.3l0.59,0.14l0.15,0.3l0.59,0.15l0.15,0.29l0.3,0l0.15,0.3l0.3,0l0.15,0.29l0.3,0l0.15,0.29l0.27,0l0.15,0.3l0.29,0l0.3,0.44l0.29,0l0.15,0.3l0.15,0l0.15,0.29l0.3,0l0.59,0.74l0.29,0l1.62,1.76l1.62,1.47l0,0.29l0.74,0.59l0,0.3l0.59,0.44l0,0.29l0.44,0.3l0,0.29l0.29,0.15l0,0.29l0.44,0.3l0,0.29l0.29,0.15l0.15,0.59l0.29,0.15l0.15,0.58l0.29,0.15l0.3,0.88l0.29,0.15l0.44,1.32l0.15,0l0,0.29l0.15,0l0.15,0.59l0.15,0l0,0.44l0.15,0l0,0.29l0.15,0l0,0.44l0.15,0l0,0.29l0.15,0l0.15,0.88l0.15,0l0,0.44l0.15,0l0,0.44l0.14,0l0,0.44l0.15,0l0,0.59l0.15,0l0,0.59l0.15,0l0,0.59l0.16,0l0,0.74l0.15,0l0,0.88l0.15,0l0,1c0.308,1.698 0.405,3.428 0.29,5.15l0,53.36c-0.121,1.521 -0.071,3.05 0.15,4.56l0,85.41l-0.15,0l0,1.91l-0.15,0l-0.15,2.5c-0.2,0.69 -0.38,1.68 -0.59,2.35l0,0.73l-0.15,0l-0.15,1.18l-0.14,0c-0.05,0.39 -0.1,0.78 -0.15,1.18l-0.15,0l-0.15,1l-0.15,0l0,0.44l-0.15,0l0,0.5l-0.15,0l-0.29,1.32l-0.15,0l0,0.3l-0.15,0c0,0.29 -0.1,0.59 -0.15,0.88l-0.15,0l-0.15,0.59l-0.15,0l0,0.44l-0.17,0l-0.15,0.59l-0.15,0l0,0.44l-0.15,0l-0.29,0.88l-0.15,0l0,0.29l-0.11,0l0,0.3l-0.15,0l0,0.29l-0.15,0l0,0.3l-0.15,0l0,0.29l-0.15,0l0,0.29l-0.15,0l0,0.3l-0.3,0.29l0,0.3l-0.29,0.15l-0.3,0.88l-0.29,0.15l-0.15,0.59l-0.29,0.15l0,0.3l-0.3,0.15l0,0.3l-0.29,0.15l0,0.29l-0.3,0.15l0,0.29l-0.29,0.15l0,0.21l-0.29,0.15l0,0.3l-0.3,0.15l0,0.3l-0.44,0.29l0,0.3l-0.44,0.29l0,0.29l-0.59,0.44l0,0.29l-0.59,0.44l0,0.3l-0.88,0.74l0,0.29l-1.62,1.47c-0.948,1.062 -1.982,2.046 -3.09,2.94l-0.73,0.88l-0.3,0l-0.59,0.74l-0.29,0l-0.3,0.44l-0.29,0l-0.3,0.44l-0.29,0l-0.29,0.44l-0.3,0l-0.29,0.44l-0.24,0l-0.15,0.29l-0.29,0l-0.15,0.3l-0.29,0l-0.15,0.29l-0.29,0l-0.15,0.29l-0.3,0l-0.15,0.3l-0.3,0l-0.15,0.29l-0.3,0l0,0.15l-0.33,0l-0.15,0.3l-0.59,0.15l-0.15,0.3l-0.88,0.29l-0.15,0.3l-2.35,1l0,0.15l-0.29,0l0,0.15l-0.29,0l0,0.15l-0.88,0.29l0,0.15l-0.73,0.14l0,0.15l-0.3,0l0,0.21l-0.44,0l0,0.15l-0.3,0l0,0.15l-1.87,0.56Zm-71,-118.93l0,0.15l-1,0.15l0,0.15l-0.63,0l0,0.15l-0.44,0l0,0.14l-0.56,0c-1.53,0.53 -3.35,0.93 -4.85,1.47l-1.76,0.29l0,0.15l-0.44,0l0,0.15l-1.62,0.29l0,0.15l-1.62,0.29l0,0.15l-1.76,0.29l0,0.1l-0.44,0l0,0.15l-1.62,0.29l0,0.15l-0.59,0l0,0.15l-1.18,0.15c-3.58,1.29 -7.73,1.95 -11.32,3.23l-3.23,0.74l0,0.14l-1.77,0.29c-2,0.73 -4.43,1.21 -6.47,1.91c-1.09,0.37 -2.7,0.28 -3.23,1.18c-0.53,0.54 -0.3,3.3 -0.3,4.41l0,75.71c0,1.14 -0.24,4.21 0.44,4.56l1.17,0c0.38,-0.32 0.93,-0.13 1.47,-0.3l0,-0.15l0.73,0l0,-0.15l0.74,0c2.05,-0.65 4.56,-0.83 6.62,-1.47l2.21,-0.3l0,-0.15l0.73,0l0,-0.15l0.74,0l0,-0.15l0.74,0l0,-0.15l0.73,0c2.52,-0.79 5.56,-1 8.08,-1.76l2.21,-0.3l0,-0.03l3.67,-0.59c2.06,-0.64 4.56,-0.83 6.62,-1.47l1.47,-0.15c1.11,-0.35 2.56,-0.54 3.68,-0.88l0.73,0c0.904,-0.302 1.841,-0.5 2.79,-0.59c0.22,-0.34 0.43,-0.24 0.59,-0.44l0,-0.29l0.29,-0.15l0,-34.44c-0.32,-0.37 -0.14,-2.78 -0.14,-3.53l0,-44.54c0.075,-1.618 0.025,-3.24 -0.15,-4.85l-0.15,0l0,-0.15l-1.18,0Z" style="fill:#008f8b;"/><path d="M151.22,163.62c4.779,-0.2 9.548,0.601 14,2.35l0.88,0.15l0,0.15l0.74,0.15l0,0.15l0.59,0.15l0,0.15l0.29,0l0,0.15l0.44,0l0,0.15l0.88,0.29l0,0.15l0.29,0l0,0.15l0.59,0.15l0.15,0.29l0.88,0.3l0.15,0.29l0.3,0l0,0.15l0.29,0l0,0.14l0.44,0.15l0.15,0.3l0.59,0.15l0.29,0.44l0.3,0l0.15,0.29l0.29,0l0.3,0.44l0.29,0l0.29,0.44l0.3,0l0.44,0.59l0.3,0l0.59,0.74l0.15,0l0.15,0.29l0.29,0l1,1.18l1,0.88l0,0.29l1,0.88l0.15,0.44l0.44,0.29l0,0.3l0.44,0.29l0.15,0.44l0.3,0.15l0,0.29l0.29,0.15l0.15,0.44l0.15,0l0,0.3l0.29,0.15l0.15,0.44l0.15,0l0.15,0.59l0.3,0.14l0.15,0.59l0.29,0.15l0,0.29l0.3,0.3l0,0.29l0.15,0l0,0.3l0.15,0l0.29,0.88l0.12,0l0.15,0.74l0.15,0l0,0.29l0.15,0l0,0.44l0.15,0l0,0.29l0.15,0l0.73,2.65l0.15,0l0.3,1.77l0.14,0c0.05,0.54 0.1,1.08 0.15,1.62c0.57,1.93 0.44,4.57 0.44,7.06l0,14.26c-0.047,7.84 -0.097,15.68 -0.15,23.52l0,5.58c0,1.12 0.1,1.93 -0.59,2.35l0,0.15l-1,0.14l0,0.15l-0.59,0l0,0.15l-0.59,0l0,0.15l-0.59,0l0,0.15l-1.32,0.14l0,0.15l-0.59,0l0,0.14l-0.59,0l0,0.15l-0.59,0l0,0.15l-0.59,0l0,0.14l-1.32,0.15c-3.28,1.13 -7.15,1.52 -10.44,2.65l-2.5,0.44c-2.29,0.78 -5.06,1.13 -7.35,1.91l-1.32,0.15c-1.68,0.55 -3.76,0.9 -5.44,1.47l-1.32,0.15l-2.35,0.73l-0.73,0c-3.88,1.26 -8.32,1.83 -12.2,3.09l-1.32,0.15c-1.49,0.51 -3.36,0.84 -4.85,1.32l-0.73,0c-2.87,0.94 -6.24,1.43 -9.11,2.35l-0.74,0l-2.35,0.73l-1.32,0.15c-1.48,0.5 -3.36,0.82 -4.85,1.32l-1.32,0.14c-1.363,0.522 -2.802,0.822 -4.26,0.89c-0.305,-0.948 -0.404,-1.951 -0.29,-2.94l0,-26.9l-0.15,0l0,-0.44l-0.21,0c-0.2,-0.23 -0.32,-0.26 -0.74,-0.3l0,0.15l-1,0.15l0,0.15l-0.59,0l0,0.14l-0.59,0l0,0.15l-0.59,0l0,0.15l-0.44,0l0,0.15l-0.59,0l0,0.14l-0.59,0l0,0.15l-0.59,0l0,0.14l-1,0.15l0,0.15l-1.77,0.3c-1.16,0.42 -2.64,0.77 -3.82,1.17l-1.18,0.15c-3.29,1.19 -7.14,1.76 -10.44,2.94l-1.76,0.29l0,0.15l-0.44,0l0,0.14l-0.59,0l0,0.15l-0.59,0l0,0.15l-1,0.15l0,0.15l-0.59,0l0,0.14l-0.59,0l0,0.14l-0.59,0l0,0.14l-0.44,0l0,0.15l-0.3,0l-0.73,0.88l0,109.65c0,16.14 1,57.36 0.15,52.78c0.27,0.14 0.23,0.2 0.59,0.3c0.33,0.29 1.53,0 2.21,0c12.22,-0.66 11.12,-0.63 28.52,-1.91c0,-0.15 0.16,0 0.21,-0.19c0.05,-0.19 0.1,-0.13 0.15,-0.13c0.05,0 0.06,-0.16 0.06,-0.26c0,-0.1 0,-0.15 0,-0.15l0,-49.26c0.074,-1.618 0.023,-3.24 -0.15,-4.85c-0.27,-0.14 -0.23,-0.21 -0.59,-0.3c-9.94,1.19 -10.66,1.32 -19.55,2.35c-0.129,-0.163 -0.277,-0.311 -0.44,-0.44l0,-34.84c0.33,-0.38 0.15,-3 0.15,-3.82l0,-10.88c0,-0.82 -0.19,-3.72 0.15,-4.12c0.06,-0.33 0.282,-0.608 0.59,-0.74c0.39,-0.36 0.62,-0.12 1.18,-0.29l0,-0.15l0.73,0c1.58,-0.5 3.56,-0.69 5.14,-1.17l0.88,0l0,-0.15l0.73,0l0,-0.15l0.74,0l0,-0.15l0.73,0l0,-0.15l0.73,0c0.87,-0.27 2.07,-0.47 2.94,-0.73l0.88,0c2.06,-0.63 4.55,-0.85 6.62,-1.47l0.88,0l0,-0.15l0.74,0l0,-0.14l0.73,0l0,-0.15l0.73,0l0,-0.14l0.74,0c2.79,-0.88 6.18,-1 9,-1.92l2.35,-0.29l0,-0.16l0.73,0l0,-0.15l0.74,0l0,-0.15l0.73,0l0,-0.14l0.73,0c2.55,-0.81 5.68,-1 8.23,-1.77l2.21,-0.29l0,-0.15l0.88,0c1.59,-0.49 3.56,-0.68 5.15,-1.17l1.47,-0.15c1.41,-0.44 3.17,-0.59 4.56,-1l1.47,-0.14c1.63,-0.52 3.67,-0.67 5.29,-1.18l2.21,-0.3c2.11,-0.67 4.67,-0.82 6.76,-1.47l1.62,-0.14c3,-0.93 6.66,-1.11 9.7,-2.06l0.73,0l0,-0.15l0.74,0l0,-0.14l0.73,0l0,-0.15l0.73,0l0,-0.15l3.09,-0.44c0.87,-0.28 2.07,-0.47 2.94,-0.74l0.74,0c1.318,-0.48 2.721,-0.681 4.12,-0.59c0.49,1 0.3,3 0.3,4.41l0,45.71c0.08,2.39 0.12,5.49 0.12,6.27l0,97.81c0.131,1.868 0.033,3.745 -0.29,5.59c-0.1,0.88 -0.2,1.76 -0.3,2.64l-1.62,5.19l-0.15,0l-0.15,0.59l-0.18,0l0,0.41l-0.15,0l-0.29,0.89l-0.15,0l0,0.3l-0.15,0l-0.3,0.88l-0.29,0.15l-0.3,0.88l-0.15,0l-0.15,0.44l-0.3,0.14l-0.15,0.59l-0.44,0.3l0,0.29l-0.14,0l-0.15,0.44l-0.3,0.14l0,0.3l-0.59,0.44l0,0.29l-0.59,0.45l0,0.29l-0.88,0.74l0,0.29l-1.47,1.32l-0.73,0.88l-0.29,0l-0.74,0.88l-0.29,0l-0.59,0.74l-0.3,0l-0.29,0.44l-0.29,0l-0.3,0.44l-0.24,0l-0.15,0.3l-0.3,0l-0.15,0.3l-0.3,0l-0.15,0.3l-0.29,0l-0.15,0.3l-0.59,0.14l-0.15,0.3l-0.59,0.15l-0.15,0.3l-0.29,0l-0.3,0.29l-0.29,0l0,0.15l-0.3,0l0,0.14l-0.29,0l0,0.15l-0.3,0l0,0.15l-0.26,0l0,0.09l-0.3,0l0,0.15l-0.88,0.3l0,0.14l-0.44,0l0,0.15l-0.3,0l0,0.15l-0.73,0.15l0,0.15l-0.44,0l0,0.14l-0.3,0l0,0.15l-1.32,0.29l0,0.15l-0.59,0l0,0.15l-0.44,0l0,0.15l-1,0.14l0,0.15l-0.59,0l0,0.14c1.34,0 -6.13,0.89 -12.05,0.89l-17.8,0l-79.09,0.14l-14.73,0c-1.421,0.113 -2.85,0.066 -4.26,-0.14l-2.18,0l0,-0.15l-1.32,0l0,-0.14l-1,0l0,-0.15l-0.88,0l0,-0.1l-1.47,-0.14l0,-0.15l-0.59,0l0,-0.14l-0.59,0l0,-0.15l-0.59,0l0,-0.14l-0.44,0l0,-0.15l-0.59,0l0,-0.15l-0.44,0l0,-0.15l-0.44,0l0,-0.15l-0.44,0l0,-0.14l-0.29,0l0,-0.15l-0.88,-0.14l0,-0.25l-0.29,0l0,-0.15l-0.44,0l0,-0.15l-0.59,-0.15l0,-0.14l-0.29,0l0,-0.15l-0.49,0l0,-0.14l-0.88,-0.3l0,-0.15l-0.29,0l0,-0.15l-0.59,-0.14l-0.15,-0.3l-0.88,-0.29l-0.15,-0.3l-0.56,-0.09l-0.15,-0.3l-0.59,-0.15l-0.15,-0.3l-0.3,0l-0.15,-0.29l-0.29,0l-0.29,-0.45l-0.3,0l-0.29,-0.44l-0.3,0l-0.29,-0.44l-0.3,0l-0.44,-0.59l-0.29,0l-0.88,-1l-0.29,0l-0.59,-0.73l-1.47,-1.32l0,-0.3l-1,-0.88l0,-0.29l-0.59,-0.45l0,-0.29l-0.44,-0.3l0,-0.29l-0.44,-0.3l0,-0.29l-0.29,-0.15l-0.15,-0.44l-0.15,0l0,-0.29l-0.29,-0.15l-0.15,-0.44l-0.15,0l-0.15,-0.59l-0.3,-0.15l0,-0.29l-0.15,0l0,-0.3l-0.29,-0.3l0,-0.3l-0.29,-0.14l-0.44,-1.32l-0.14,0l0,-0.3l-0.23,0l-0.15,-0.59l-0.15,0l0,-0.44l-0.1,0l0,-0.3l-0.15,0l0,-0.44l-0.15,0l0,-0.3l-0.15,0l-1.15,-4.1l0,-0.89c-0.275,-1.402 -0.373,-2.833 -0.29,-4.26l0,-39.7l-0.15,0l0,-151.7c0,-3.58 -0.42,-8.79 0.44,-11.61c0,-0.49 0.1,-1 0.15,-1.47l0.15,0c0.05,-0.39 0.1,-0.78 0.15,-1.18l0.15,0l0,-0.59l0.15,0l0,-0.44l0.15,0l0,-0.44l0.1,0l0,-0.59l0.15,0l0,-0.3l0.15,0l0.15,-0.88l0.15,0l0.15,-0.74l0.15,0l0.15,-0.58l0.15,0l0,-0.44l0.14,0l0.3,-0.88l0.15,0l0,-0.29l0.15,0l0.3,-0.88l0.29,-0.15l0.15,-0.58l0.29,-0.15l0.15,-0.59l0.15,0l0.15,-0.44l0.29,-0.15l0,-0.29l0.15,0l0.14,-0.46l0.3,-0.15l0,-0.3l0.44,-0.29l0,-0.26l0.44,-0.29l0,-0.3l0.73,-0.59l0,-0.29l1,-0.88l0,-0.3l0.59,-0.44l1,-1.18l0.3,0l1,-1.18l0.29,0l0.44,-0.59l0.3,0l0.29,-0.44l0.3,0l0.29,-0.44l0.44,-0.15l0.15,-0.29l0.29,0l0.15,-0.3l0.44,-0.14l0,-0.2l0.3,0l0.15,-0.3l0.59,-0.15l0.15,-0.3l0.59,-0.15l0.15,-0.3l0.29,0l0.3,-0.29l0.3,0l0,-0.15l0.3,0l0,-0.15l0.29,0l0,-0.15l0.3,0l0,-0.06l0.29,0l0,-0.15l0.29,0l0,-0.15l0.88,-0.29l0,-0.15l0.44,0l0,-0.15l0.29,0l0,-0.11l0.73,-0.15l0,-0.15l0.44,0l0,-0.15l0.3,0l0,-0.15l5,-1.47l19,-6.32l0.45,0l0,-0.15l0.44,0l0,-0.15l0.44,0l0,-0.15l0.44,0l0,-0.16l0.59,0c3.61,-1.31 7.56,-2.52 11.17,-3.82l1,-0.14l0,-0.15l0.88,-0.15l0,-0.15l0.44,0l0,-0.15l0.44,0l0,-0.15l0.44,0l0,-0.15l0.44,0l0,-0.14l0.44,0l0,-0.15l0.88,-0.15l0,-0.15l0.88,-0.15l0,-0.15l0.59,0l0,-0.15l0.49,0l0,-0.1l0.44,0l0,-0.14l0.44,0l0,-0.15l0.44,0c2.56,-1 5.53,-1.77 8.09,-2.79l1.91,-0.44l0,-0.15l0.44,0l0,-0.15l0.44,0l0,-0.18l0.44,0l0,-0.15l0.44,0c2.56,-1 5.53,-1.77 8.08,-2.79l1.91,-0.44c9.4,-3.43 19.4,-6.15 28.81,-9.56l1,-0.15l0,-0.15l0.88,-0.15l0,-0.15l0.44,0l0,-0.15l0.44,0l0,-0.15l0.44,0l0,-0.16l0.44,0l0,-0.15l0.48,0l0,-0.15l0.88,-0.15l0,-0.14l0.88,-0.15l0,-0.15l0.59,0l17.2,-5.73l5.58,-1.18c0.79,-0.2 3.07,0.16 3.53,-0.26Z" style="fill:#008f8b;"/><path d="M1330.56,463.37l-74.39,0l0,-112.75l-0.15,0l0,-0.15c-1.142,0.011 -2.279,-0.137 -3.38,-0.44l-1.17,0l0,-0.14l-1.18,0l0,-0.15l-1,0l0,-0.14l-1.17,0l0,-0.15l-1.17,0l0,-0.15l-1.18,0l0,-0.15l-1,0l0,-0.15l-2.35,-0.14c-1.73,-0.51 -4,-0.38 -5.73,-0.88l-2.21,-0.14c-1.73,-0.51 -4,-0.39 -5.73,-0.89l-1.17,0l0,-0.14l-1.18,0l0,-0.13c-0.46,-0.13 -1,0 -1.32,-0.14l0,116.83l-81.29,0l0,-308.86l0.15,0c0.47,0.43 1.54,0.47 2.2,0.74l0,0.15l0.44,0l0,0.15l0.44,0c1.58,0.63 3.43,1.14 5,1.77l0.88,0.15l0,0.15l0.59,0l0,0.15l0.44,0l0,0.15l0.44,0l0,0.15l0.44,0l0,0.15l0.44,0c2.42,1 5.23,1.69 7.64,2.65l1,0.15c4.81,1.76 10,3.26 14.85,5l1,0.15l0,0.15l0.89,0.15l0,0.15l0.44,0l0,0.06l0.44,0l0,0.15l0.44,0l0,0.15l0.44,0l0,0.15l0.44,0l0,0.15l0.89,0.15l0,0.15l0.59,0c3.16,1.15 6.67,2.23 9.85,3.38l1,0.15l0,0.14l0.88,0.15l0,0.15l0.44,0l0,0.13l0.44,0l0,0.15l0.44,0l0,0.15l0.44,0l0,0.15l0.44,0l0,0.15l0.88,0.15l0,0.15l0.59,0l0,0.15l0.44,0l0,0.15l0.44,0l0,0.15l0.44,0l0,0.15l0.44,0c2.42,1 5.23,1.69 7.65,2.64l1,0.15l0,0.14l0.44,0l0,0.15l0.44,0l0,0.15l0.44,0l0,0.15l0.44,0l0,0.12l0.44,0l0,0.15l0.44,0l0,0.15l0.44,0l0,0.15l0.44,0l0,0.15l0.44,0l0,0.15l0.45,0l0,0.15l0.44,0l0,0.15l0.59,0l0,0.15l1.32,0.3c2.27,0.91 4.93,1.59 7.2,2.5l1.47,0.29c6.59,2.4 13.69,4.38 20.29,6.76l1,0.15c2.41,1 5.22,1.68 7.64,2.65l1.33,0.29l0,0.15l1,0.15l0,0.15l0.89,0.15l0,0.15l0.44,0l0,0.11l0.44,0l0,0.14l0.44,0l0,0.15l0.44,0l0,0.15l0.44,0l0,0.15l0.44,0l0,0.15l0.88,0.15l0,0.11l0.59,0l0,0.15l1.32,0.3c1.85,0.74 4,1.32 5.88,2.06l0.44,0l0,0.15l0.44,0l0,0.15l0.44,0l0,0.19l0.44,0l0,0.15l0.44,0l0,0.15l0.59,0l0,0.15l0.88,0.15l0,0.15l0.44,0l0,0.15l0.44,0l0,0.1l0.44,0l0,0.15l0.44,0l0,0.15l0.44,0l0,0.15l0.44,0l0,0.15l0.88,0.15l0,0.15l1,0.15l0,0.15l0.89,0.15l0,0.15l0.44,0l0,0.15l0.44,0l0,0.15l0.44,0l0,0.15l0.44,0l0,0.15l0.44,0l0,0.14l0.89,0.15l0,0.15l1,0.15l0,0.15l0.88,0.15l0,0.15l0.44,0l0,0.15l0.44,0l0,0.15l0.44,0l0,0.15l0.44,0l0,0.15l0.44,0l0,0.15l0.88,0.15l0,0.15l1,0.15c4.81,1.75 10,3.26 14.85,5l0.59,0l0,0.15l0.44,0l0,0.15l0.44,0l0,0.15l0.44,0l0,0.15l0.44,0l0,0.06l0.44,0l0,0.15l0.44,0l0,0.15l0.44,0l0,0.15l1.32,0.29l0,0.15l0.59,0l0,0.11l0.44,0l0,0.15l0.3,0l0,0.14l0.88,0.15l0,0.15l0.3,0l0,0.15l0.44,0l0,0.15l0.29,0l0,0.15l0.44,0l0,0.15l0.88,0.29l0,0.15l0.3,0l0,0.15l0.3,0l0,0.22l0.3,0l0,0.15l0.3,0l0,0.15l0.29,0l0,0.15l0.3,0l0,0.15l0.29,0l0.3,0.29l0.3,0l0.15,0.29l0.59,0.15l0,0.15l0.44,0.15l0.15,0.3l0.59,0.15l0.3,0.44l0.29,0l0.15,0.29l0.29,0l0.15,0.3l0.44,0.14l0.3,0.44l0.3,0l0.3,0.44l0.44,0.15l0.74,0.88l0.29,0l1.47,1.62l0.88,0.74l0,0.29l0.89,0.74l0.14,0.44l0.44,0.29l0,0.3l0.44,0.29l0.14,0.44l0.3,0.15l0,0.3l0.29,0.15l0.15,0.44l0.15,0l0,0.3l0.3,0.15l0.15,0.44l0.15,0l0.15,0.59l0.3,0.15c0.09,0.3 0.19,0.59 0.3,0.88l0.29,0.15c0.05,0.19 0.1,0.39 0.15,0.59l0.15,0l0.29,0.88l0.15,0l0,0.44l0.14,0l0.15,0.59l0.15,0l0,0.44l0.15,0l0,0.3l0.15,0l0,0.44l0.15,0l0,0.29l0.15,0l0,0.44l0.15,0l0,0.44l0.15,0l0,0.44l0.15,0c0.047,0.347 0.097,0.68 0.15,1l0.15,0l0.15,1.18l0.15,0l0,0.73l0.14,0l0,0.74l0.15,0l0,0.88l0.15,0l0,1l0.15,0c0.047,2.16 0.097,4.317 0.15,6.47l0,21c0.1,1.335 0.049,2.676 -0.15,4l0,37.3l-0.15,0l0,1.47l-0.15,0l0,1l-0.15,0l0,0.93l-0.14,0l0,0.73l-0.15,0l0,0.59l-0.15,0l0,0.59l-0.15,0l0,0.59l-0.15,0l0,0.44l-0.15,0c-0.1,0.49 -0.19,1 -0.29,1.48l-0.15,0l0,0.29l-0.15,0l-0.15,0.88l-0.15,0l0,0.3l-0.15,0l0,0.44l-0.15,0c-0.09,0.3 -0.19,0.59 -0.3,0.88l-0.09,0l0,0.3l-0.15,0l0,0.29l-0.15,0l0,0.3l-0.15,0l0,0.29l-0.15,0l0,0.3l-0.14,0l0,0.3l-0.3,0.3l0,0.3l-0.3,0.14c0,0.2 -0.1,0.4 -0.15,0.59l-0.29,0.15l0,0.29l-0.3,0.15l0,0.29l-0.3,0.15l0,0.3l-0.29,0.14l0,0.3l-0.3,0.15l0,0.3l-0.44,0.29l0,0.3l-0.3,0.15l0,0.15l-0.3,0.15l0,0.29l-0.73,0.59l0,0.3l-1.76,1.62l-1.47,1.61l-0.29,0l-0.74,0.88l-0.3,0l-0.29,0.44l-0.3,0l-0.3,0.44l-0.3,0l-0.3,0.44l-0.21,0l-0.15,0.3l-0.3,0l-0.14,0.3l-0.44,0.14l0,0.07l-0.3,0l0,0.15l-0.29,0l-0.15,0.3l-0.59,0.14l-0.15,0.3l-0.3,0l0,0.11l-0.29,0l-0.3,0.3l-0.29,0l-0.15,0.29l-1.33,0.44l0,0.15l-0.29,0l0,0.15l-0.88,0.29l0,0.15l-0.44,0l0,0.14l-0.29,0l0,0.15l-0.89,0.15l0,0.15l-0.29,0l0,0.15l-1.62,0.44l0,0.15c0.465,0.07 0.915,0.219 1.33,0.44l0.88,0.14l0,0.15l0.29,0l0,0.17l0.44,0l0,0.15l0.3,0l0,0.15l0.44,0l0,0.15l0.89,0.29l0,0.15l1.32,0.44l0.15,0.3l0.3,0l0,0.14l0.3,0l0,0.15l0.29,0l0.3,0.29l0.29,0l0.15,0.29l0.59,0.15l0.14,0.3l0.3,0l0.15,0.3l0.29,0l0.15,0.29l0.29,0l0,0.15l0.44,0.15l0.15,0.29l0.3,0l0.3,0.44l0.3,0l0.3,0.44l0.29,0l0.44,0.59l0.3,0l0.73,0.88l0.3,0l1.47,1.62l0.89,0.73l0,0.3l0.88,0.73l0,0.3l0.59,0.44l0,0.29l0.59,0.44l0,0.29l0.3,0.15l0,0.29l0.44,0.3l0,0.29l0.3,0.15l0.15,0.59l0.3,0.15l0.15,0.44l0.15,0c0.09,0.3 0.19,0.59 0.3,0.89l0.3,0.14l0.29,0.88l0.15,0l0,0.3l0.15,0l0.29,0.88l0.15,0l0.14,0.74l0.15,0l0,0.29l0.15,0l0,0.44l0.15,0l0,0.3l0.15,0c0.49,1.72 1,3.43 1.47,5.14l0,0.88c0.6,2.07 0.44,5 0.44,7.65l0,98.2l-0.05,-0.02Zm-105.15,-226.39c-0.129,0.163 -0.277,0.311 -0.44,0.44l0,55.57c0.17,0.17 0.06,0 0.15,0.29l0.44,0.29l0,0.11l0.3,0l0,0.14l5.44,0.89c0.66,0.21 1.69,0.38 2.35,0.59l0.88,0c2.69,0.83 6,0.95 8.67,1.77l0.88,0c0.66,0.2 1.69,0.38 2.35,0.58l0.88,0c1.42,0.44 3.27,0.6 4.71,1l0.88,0c1.031,0.384 2.134,0.534 3.23,0.44l0.15,-0.44c0.25,-0.29 0.15,-1.1 0.15,-1.61l0,-5.15l-0.15,0l0,-15.07c-0.047,-5.193 -0.097,-10.39 -0.15,-15.59l0,-7.94l-0.15,0l0,-5.88c0.102,-0.739 0.05,-1.491 -0.15,-2.21l-0.44,-0.44l-0.3,0l0,-0.15l-0.44,0l0,-0.15l-0.59,0l0,-0.15l-0.59,0c-1,-0.36 -2.33,-0.67 -3.38,-1l-1.17,-0.15c-3.68,-1.31 -7.95,-1.93 -11.62,-3.23l-0.59,0l0,-0.15l-0.59,0l0,-0.14l-0.56,0l0,-0.15l-0.59,0l0,-0.14l-0.41,0l0,-0.15l-0.59,0l0,-0.15l-0.59,0l0,-0.15l-0.59,0l0,-0.15l-1,-0.14l0,-0.15l-0.59,0l0,-0.14l-1.77,-0.29l0,-0.15l-1.61,-0.29c-0.764,-0.335 -1.579,-0.541 -2.41,-0.61Z" style="fill:#008f8b;"/><path d="M668.56,463.07c-0.194,-1.904 -0.241,-3.819 -0.14,-5.73l0,-457.19c0.429,-0.123 0.875,-0.174 1.32,-0.15l0,0.15l0.88,0.15l0,0.15l0.44,0l0,0.15l0.44,0l0,0.15l0.44,0l0,0.15l0.44,0l0,0.15l0.44,0l0,0.15l0.44,0l0,0.15l0.44,0l0,0.15l0.59,0l0,0.15l0.44,0l0,0.15l0.45,0l0,0.15l0.38,0l0,0.15l0.44,0c2.56,1 5.53,1.77 8.09,2.79l1.91,0.44c5.54,2 11.51,3.73 17.06,5.73l1.47,0.29c3,1.19 6.42,2 9.41,3.23l1.47,0.3l0,0.15l0.88,0.14l0,0.15l0.44,0l0,0.15l0.44,0l0,0.15l0.44,0l0,0.15l0.44,0l0,0.15l0.51,0l0,0.15l0.89,0.15l0,0.15l1.32,0.3l0,0.15l1,0.15l0,0.15l0.88,0.14l0,0.15l0.44,0l0,0.15l0.47,0l0,0.12l0.44,0l0,0.15l0.44,0l0,0.15l0.45,0l0,0.15l0.88,0.15l0,0.15l0.89,0.15l0,0.1l1,0.15l0,0.15l0.88,0.15l0,0.15l0.44,0l0,0.15l0.44,0l0,0.15l0.44,0l0,0.1l0.45,0l0,0.15l0.44,0l0,0.15l0.88,0.15l0,0.15l0.88,0.15l0,0.15l0.59,0c3.6,1.31 7.56,2.52 11.17,3.82l1,0.15l0,0.13l0.88,0.15l0,0.15l0.41,0l0,0.15l0.44,0l0,0.15l0.44,0l0,0.15l0.44,0l0,0.15l0.44,0l0,0.1l0.88,0.15l0,0.15l0.89,0.15l0,0.15l0.59,0c3.6,1.31 7.56,2.52 11.17,3.82l1,0.15l0,0.15l0.88,0.15l0,0.13l0.44,0l0,0.15l0.44,0l0,0.15l0.44,0l0,0.15l0.51,0l0,0.14l0.44,0l0,0.15l0.88,0.15l0,0.15l0.89,0.15l0,0.15l0.59,0c3.75,1.37 7.86,2.61 11.62,4l1,0.15l0,0.15l0.88,0.15l0,0.15l0.44,0l0,0.15l0.44,0l0,0.15l0.44,0l0,0.15l0.44,0l0,0.15l0.44,0l0,0.15l0.88,0.15l0,0.16l0.89,0.15l0,0.15l0.59,0l0,0.15l0.44,0l0,0.15l0.44,0l0,0.15l0.44,0l0,0.15l0.44,0c2.56,1 5.53,1.77 8.08,2.79l1.91,0.44l0,0.15l0.44,0l0,0.15l0.44,0l0,0.15l0.51,0l0,0.15l0.44,0c2.56,1 5.53,1.77 8.08,2.79l1.91,0.44c7.47,2.72 15.45,4.94 22.93,7.65l1,0.15l0,0.15l0.89,0.15l0,0.15l0.44,0l0,0.14l0.44,0l0,0.15l0.44,0l0,0.15l0.43,0l0,0.15l0.44,0l0,0.15l0.89,0.15l0,0.15l0.88,0.15l0,0.15l0.59,0c3.6,1.31 7.56,2.52 11.17,3.82l0.59,0l0,0.15l0.88,0.15l0,0.15l0.44,0l0,0.15l0.44,0l0,0.03l0.44,0l0,0.15l0.44,0l0,0.15l0.44,0l0,0.15l0.88,0.15l0,0.15l1.91,0.44l0,0.14l0.88,0.15l0,0.15l0.44,0l0,0.15l0.44,0l0,0.15l0.44,0l0,0.15l0.44,0l0,0.15l0.44,0l0,0.15l0.49,0l0,0.15l0.44,0l0,0.15l0.44,0l0,0.15l0.44,0l0,0.15l0.44,0l0,0.15l0.58,0l0,0.15l0.89,0.15l0,0.14l0.44,0l0,0.15l0.44,0l0,0.15l0.44,0l0,0.13l0.45,0l0,0.15l0.44,0l0,0.15l0.89,0.15l0,0.15l0.88,0.15l0,0.15l1,0.15c7.62,2.77 15.75,5 23.37,7.79l1,0.15c3,1.18 6.42,2 9.41,3.23l0.44,0l0,0.15l0.44,0l0,0.15l0.44,0l0,0.15l0.44,0l0,0.15l0.73,0.15l0,0.15l0.3,0l0,0.15l0.44,0l0,0.15l0.59,0.14l0,0.15l0.3,0l0,0.15l0.44,0l0,0.15l0.59,0.15l0,0.15l0.59,0.15l0.15,0.29l0.3,0l0,0.15l0.29,0l0.3,0.29l0.29,0l0.15,0.3l0.59,0.15l0,0.14l0.44,0.15l0.15,0.3l0.58,0.15l0.3,0.44l0.3,0l0.15,0.29l0.28,0l0.3,0.44l0.3,0l0.3,0.44l0.3,0l0.44,0.59l0.3,0l0.73,0.88l0.3,0l1.18,1.32l1.32,1.18l0,0.29l0.89,0.73l0,0.3l0.59,0.44l0,0.29l0.44,0.3l0,0.29l0.3,0.15l0,0.25l0.44,0.3l0,0.29l0.3,0.15l0,0.26l0.3,0.15l0.15,0.59l0.3,0.15l0.3,0.88l0.3,0.15c0.09,0.29 0.19,0.59 0.3,0.88l0.14,0l0,0.3l0.15,0l0.29,0.88l0.15,0l0.14,0.74l0.05,0l0,0.28l0.14,0l0,0.44l0.15,0l0,0.3l0.15,0l0,0.44l0.15,0l0,0.44l0.15,0l0,0.44l0.15,0l0,0.44l0.15,0l0,0.44l0.15,0l0,0.59l0.15,0l0,0.47l0.15,0l0,0.59l0.15,0l0,0.73l0.15,0l0,0.68l0.21,0l0,0.74l0.15,0l0,1.17c0.315,1.795 0.413,3.622 0.29,5.44l0,105.7c0.131,1.567 0.081,3.144 -0.15,4.7l-0.15,2.94l-0.14,0l0,1c-0.2,0.69 -0.38,1.68 -0.59,2.35l0,0.74l-0.15,0l-0.3,1.76l-0.15,0c0,0.34 -0.1,0.69 -0.15,1l-0.15,0l0,0.44l-0.15,0l0,0.44l-0.15,0l0,0.44l-0.21,0l0,0.44l-0.15,0c-0.093,0.44 -0.19,0.88 -0.29,1.32l-0.15,0l0,0.3l-0.15,0l0,0.44l-0.15,0l0,0.29l-0.11,0l0,0.44l-0.15,0l-0.14,0.59l-0.15,0l0,0.44l-0.15,0l-0.3,0.88l-0.11,0l0,0.29l-0.15,0l0,0.29l-0.15,0c0,0.25 -0.1,0.5 -0.15,0.73l-0.29,0.15c-0.05,0.19 -0.1,0.39 -0.15,0.59l-0.11,0l0,0.3l-0.15,0l0,0.29l-0.3,0.3l0,0.3l-0.29,0.15l-0.15,0.59l-0.3,0.15l-0.14,0.59l-0.3,0.15l-0.15,0.59l-0.22,0l-0.15,0.44l-0.29,0.14l0,0.3l-0.3,0.15l0,0.29l-0.44,0.3l0,0.3l-0.29,0.15l0,0.29l-0.3,0.15l-0.15,0.44l-0.44,0.3l0,0.3l-0.58,0.44l0,0.3l-0.59,0.44l0,0.3l-0.89,0.73l0,0.3l-2.35,2.21l-1.91,2.06l-0.29,0l-0.74,0.88l-0.29,0l-0.59,0.74l-0.44,0.15l-0.15,0.3l-0.3,0l-0.44,0.59l-0.3,0l-0.14,0.29l-0.3,0l-0.3,0.45l-0.3,0l-0.15,0.29l-0.3,0l-0.3,0.44l-0.29,0l-0.15,0.3l-0.59,0.14l-0.15,0.3l-0.29,0l-0.15,0.3l-0.3,0l-0.14,0.3l-0.3,0l0,0.14l-0.3,0l-0.14,0.3l-0.89,0.3l-0.15,0.3l-6.17,2.94l-0.44,0l0,0.15l-0.29,0l0,0.14l-0.88,0.15l0,0.14l-0.29,0l0,0.18l-0.44,0l0,0.15l-0.44,0l0,0.14l-0.44,0l0,0.15l-0.44,0l0,0.14l-1.47,0.3l0,0.12l0.15,0l0,0.15l0.88,0.15l0,0.15l0.44,0l0,0.14l0.68,0l0,0.15l0.44,0l0,0.14l0.3,0l0,0.12l0.88,0.15l0,0.15l0.44,0l0,0.15l0.3,0l0,0.14l0.44,0l0,0.15l0.73,0.14l0,0.15l0.3,0l0,0.15l0.44,0l0,0.15l0.59,0.15l0,0.14l0.44,0l0,0.15l0.3,0l0,0.14l0.59,0.15l0,0.15l0.29,0l0,0.15l0.3,0l0,0.15l0.29,0l0,0.14l0.3,0l0,0.15l0.3,0l0,0.2l0.3,0l0,0.15l0.3,0l0,0.15l0.29,0l0.3,0.3l0.29,0l0.15,0.3l0.88,0.3l0.15,0.29l0.58,0.15l0,0.15l0.44,0.15l0.14,0.3l0.59,0.14l0,0.15l0.44,0.15l0.15,0.3l0.29,0l0,0.14l0.44,0.15l0.15,0.29l0.3,0l0.3,0.44l0.3,0l0.14,0.3l0.3,0l0.3,0.44l0.3,0l0.14,0.3l0.15,0l0.14,0.3l0.3,0l0.44,0.59l0.3,0l0.3,0.44l0.15,0c0.05,0.1 0.1,0.19 0.15,0.3l0.3,0l0.88,1l0.26,0l0.74,0.88l2.5,2.35l0,0.3l1.17,1l0.15,0.44l0.44,0.3l0,0.3l0.59,0.44l0,0.3l0.29,0.15l0,0.14l0.3,0.15l0,0.3l0.44,0.29l0,0.3l0.15,0c0,0.15 0.1,0.3 0.15,0.44l0.3,0.15l0,0.3l0.44,0.29l0,0.3l0.29,0.15l0,0.3l0.3,0.14l0.15,0.59l0.3,0.14l0.14,0.44l0.15,0l0.3,0.88l0.29,0.15l0,0.29l0.15,0l0,0.3l0.3,0.29l0,0.3l0.29,0.15l0.29,0.88l0.15,0l0,0.3l0.15,0l0.3,0.88l0.15,0l0,0.44l0.15,0l0,0.3l0.15,0l0.15,0.59l0.14,0l0,0.44l0.05,0l0,0.3l0.14,0l0.15,0.73l0.15,0l0,0.44l0.15,0l0,0.3l0.15,0l1.76,6c0.3,1.91 0.59,3.82 0.88,5.73c0.053,3.04 0.103,6.077 0.15,9.11l0,94.09c0,6.37 0.13,13.13 -0.15,19.25c-0.16,3.71 0.32,7.83 -0.58,10.74l0,0.73l-1.47,4.71l-0.15,0l0,0.3l-0.18,0l0,0.44l-0.15,0c-0.093,0.293 -0.19,0.59 -0.29,0.89l-0.15,0l0,0.29l-0.15,0l0,0.21l-0.15,0l0,0.3l-0.11,0l0,0.3l-0.15,0l0,0.3l-0.29,0.3l0,0.3l-0.3,0.14c0,0.2 -0.1,0.39 -0.15,0.59l-0.3,0.14l-0.15,0.59l-0.15,0l-0.15,0.44l-0.3,0.15l0,0.29l-0.29,0.15l0,0.3l-0.3,0.14c0,0.15 -0.09,0.3 -0.14,0.44l-0.44,0.3l0,0.29l-0.44,0.3l-0.14,0.44l-1,0.88l0,0.3l-0.89,0.73l-1.32,1.47l-0.3,0l-0.74,0.88l-0.29,0l-0.44,0.59l-0.33,0c0,0.1 -0.1,0.19 -0.14,0.3l-0.15,0l-0.15,0.29l-0.3,0l-0.15,0.29l-0.3,0l-0.3,0.45l-0.3,0l-0.14,0.29l-0.3,0l-0.15,0.3l-0.44,0.15l0,0.14l-0.59,0.15l-0.15,0.29l-0.88,0.3l-0.15,0.29l-0.29,0l-0.3,0.3l-0.3,0l0,0.15l-0.29,0l0,0.15l-0.23,0l0,0.11l-0.88,0.29l0,0.15l-0.73,0.14l0,0.15l-0.3,0l0,0.15l-0.44,0l0,0.12l-0.3,0l0,0.15l-0.44,0l0,0.14l-0.29,0l0,0.15l-0.89,0.14l0,0.15l-0.44,0l0,0.15l-0.44,0l0,0.15l-1,0.15l0,0.14l-0.59,0l0,0.15l-1.18,0.14l0,0.15l-1.47,0.14l0,0.15l-0.88,0l0,0.15l-1,0l0,0.14l-1.17,0l0,0.15l-2.35,0c-1.364,0.199 -2.746,0.246 -4.12,0.14l-212.75,0c-2.449,0.126 -4.904,0.046 -7.34,-0.24Zm112.31,-345c-0.13,0.162 -0.278,0.31 -0.44,0.44l0,86.74c0.33,0.28 0.19,0.44 0.73,0.58c0.39,0.36 0.61,0.12 1.18,0.3l0,0.15l0.74,0l0,0.15l0.74,0l0,0.15l0.74,0c2,0.65 4.56,0.83 6.62,1.47l1.47,0.15c1.11,0.35 2.56,0.53 3.67,0.88l0.74,0c0.87,0.28 2.07,0.46 2.94,0.74l0.74,0c2.75,0.87 6.06,1 8.82,1.91l2.21,0.29l0,0.15l5.14,0.88c1.58,0.5 3.57,0.68 5.14,1.18l1.47,0.15l0,0.15l0.74,0l0,0.15l0.73,0l0,0.15l0.73,0l0,0.15l0.73,0l0,0.14c0.482,0.125 0.988,0.125 1.47,0c0.61,-1.19 0.29,-5.22 0.29,-7.06l0,-76.78c-0.24,-0.2 -0.3,-0.42 -0.59,-0.59l0,-0.15l-1.47,-0.3l0,-0.15l-0.59,0l0,-0.15l-0.59,0l0,-0.15l-0.41,0l0,-0.11l-0.58,0c-2.24,-0.77 -4.85,-1.27 -7.06,-2.06l-1.76,-0.29c-3.58,-1.29 -7.73,-2 -11.31,-3.23l-1.18,-0.15l0,-0.15l-0.59,0l0,-0.12l-0.52,0l0,-0.15l-1.61,-0.3l0,-0.14l-1.17,-0.15l0,-0.15l-0.59,0l0,-0.15l-0.44,0l0,-0.15l-1.62,-0.3l0,-0.15l-0.57,0l0,-0.15l-1.18,-0.15c-1.82,-0.66 -4,-1.11 -5.88,-1.76l-1.18,-0.15l0,-0.15l-0.44,0l0,-0.15l-0.59,0l0,-0.15l-0.59,0l0,-0.15l-1,-0.15l0,-0.15l-1.18,-0.15c-0.855,-0.345 -1.748,-0.59 -2.66,-0.73l0.01,0.02Zm-0.14,167c-0.65,1.5 -0.3,5.94 -0.3,8.09l0,82.76c0.5,0.3 0.46,0.57 1.32,0.59c0.53,0.45 1.87,-0.07 2.65,0.14l0,0.15l3.53,0.14l1.63,0l0,0.15l2.64,0l0,0.14l2.65,0l0,0.15l2.65,0l0,0.15l3.68,0.15l1.61,0l0,0.15l2.65,0l0,0.14l3.67,0.15l1.62,0l0,0.14l2.65,0l0,0.15l3.67,0.15l1.62,0l0,0.12l2.65,0l0,0.15l2.65,0c1.358,0.261 2.748,0.308 4.12,0.14c0.129,-0.163 0.277,-0.311 0.44,-0.44l0,-86.28c-0.37,-0.33 -0.14,-0.56 -0.73,-0.74c-0.44,-0.38 -1.09,-0.1 -1.76,-0.3l0,-0.14l-1.18,0c-1.91,-0.56 -4.41,-0.47 -6.32,-1l-1.17,0l0,-0.15l-2.06,-0.15l0,-0.15l-1,0l0,-0.15l-1.25,0c-1.92,-0.56 -4.41,-0.47 -6.32,-1l-1.18,0l0,-0.14l-1,0l0,-0.15l-3.24,-0.29c-2,-0.57 -4.49,-0.46 -6.47,-1l-2.06,-0.15c-1.26,-0.37 -3,-0.37 -4.26,-0.73l-1.18,0l0,-0.15l-1,0l0,-0.18l-1,0l0,-0.15l-1,0c-1.183,-0.324 -2.404,-0.486 -3.63,-0.48l0.01,0.02Z" style="fill:#008f8b;"/></svg>
