<?xml version="1.0" encoding="UTF-8" standalone="no"?>
<svg
   xmlns:dc="http://purl.org/dc/elements/1.1/"
   xmlns:cc="http://creativecommons.org/ns#"
   xmlns:rdf="http://www.w3.org/1999/02/22-rdf-syntax-ns#"
   xmlns:svg="http://www.w3.org/2000/svg"
   xmlns="http://www.w3.org/2000/svg"
   id="svg2"
   version="1.1"
   xml:space="preserve"
   width="593.88"
   height="154"
   viewBox="0 0 593.88 154"><metadata
     id="metadata8"><rdf:RDF><cc:Work
         rdf:about=""><dc:format>image/svg+xml</dc:format><dc:type
           rdf:resource="http://purl.org/dc/dcmitype/StillImage" /><dc:title></dc:title></cc:Work></rdf:RDF></metadata><defs
     id="defs6" /><path
     d="m 1.591904,73.237298 c 0,-38.536535 131.977326,-69.775195 294.786656,-69.775195 162.808,0 294.78662,31.23866 294.78662,69.775195 0,38.537062 -131.97862,69.773992 -294.78662,69.773992 -162.80933,0 -294.786656,-31.23693 -294.786656,-69.773992"
     style="fill:#ffffff;fill-opacity:1;fill-rule:nonzero;stroke:none"
     id="path80" /><path
     d="m 442.08522,73.584758 c 0,-23.371995 18.948,-42.319995 42.32,-42.319995 23.37466,0 42.31996,18.948 42.31996,42.319995 0,23.374402 -18.9453,42.319742 -42.31996,42.319742 -23.372,0 -42.32,-18.94534 -42.32,-42.319742 l 0,0"
     style="fill:#fbc707;fill-opacity:1;fill-rule:nonzero;stroke:none"
     id="path82" /><path
     d="m 442.08522,73.584758 c 0,-23.371995 18.948,-42.319995 42.32,-42.319995 23.37466,0 42.31996,18.948 42.31996,42.319995 0,23.374402 -18.9453,42.319742 -42.31996,42.319742 -23.372,0 -42.32,-18.94534 -42.32,-42.319742 l 0,0 z"
     style="fill:none;stroke:#fbc707;stroke-width:0.20266666;stroke-linecap:butt;stroke-linejoin:miter;stroke-miterlimit:3.86400008;stroke-dasharray:none;stroke-opacity:1"
     id="path84" /><path
     d="m 324.07056,85.48836 c -0.97333,2.724 -3.712,8.1276 -3.712,10.65627 0,2.30933 2.37733,2.94013 4.752,2.94013 l 0,1.32814 -13.84267,0 0,-1.32814 c 4.332,-0.35213 6.152,-5.45573 9.01734,-12.23706 l 14.196,-33.702942 1.396,0 17.064,39.085872 c 1.25866,2.8676 2.728,7.06187 6.64399,6.85413 l 0,1.32814 -17.83199,0 0,-1.32814 c 5.944,-0.28386 5.87333,-1.60933 3.216,-7.8308 l -2.43334,-5.75253 -18.40133,-0.19267 -0.064,0.1796 0,0 z m 9.29333,-22.277062 -8.04266,19.232802 16.152,0 -8.10934,-19.232802 0,0"
     style="fill:#231f20;fill-opacity:1;fill-rule:nonzero;stroke:none"
     id="path86" /><path
     d="m 425.85056,94.1181 c 0,2.5864 1.81866,3.35733 3.356,3.42813 11.01866,0.48387 18.452,-3.99533 21.26133,-12.0448 0.824,-2.3776 1.25333,-5.06507 1.25333,-8.02453 0,-13.704672 -8.94666,-20.768142 -21.88133,-20.768142 -3.35867,0 -3.98933,0.212 -3.98933,3.56707 l 0,33.842272 z m 32.28,-8.61414 c -3.096,9.3704 -12.108,14.90894 -26.96534,14.90894 l -18.59866,0 0,-1.32814 c 5.10266,0 6.15333,-2.24013 6.15333,-4.26506 l 0,-35.102942 c 0,-2.02666 -1.05067,-4.264 -6.15333,-4.264 l 0,-1.32933 18.04,0 c 17.90133,0 28.73733,7.55093 28.73733,23.283732 0,2.94054 -0.408,5.6516 -1.21333,8.0968 l 0,0"
     style="fill:#231f20;fill-opacity:1;fill-rule:nonzero;stroke:none"
     id="path88" /><path
     d="m 400.41056,59.716758 c 0,-2.02666 -1.05067,-4.264 -6.78534,-4.264 l 0,-1.32933 16.644,0 0,1.32933 c -5.73333,0 -6.784,2.23734 -6.784,4.264 l 0,41.673202 -1.04933,0 -31.04533,-38.527602 0,31.957342 c 0,2.02493 1.05066,4.26506 6.78133,4.26506 l 0,1.32814 -16.63867,0 0,-1.32814 c 5.732,0 6.78134,-2.24013 6.78134,-4.26506 l 0,-35.524272 -0.56,-0.696 c -2.168,-2.448 -2.79734,-3.07733 -6.22134,-3.14667 l 0,-1.32933 11.956,0 26.92134,33.630532 0,-28.037202"
     style="fill:#231f20;fill-opacity:1;fill-rule:nonzero;stroke:none"
     id="path90" /><path
     d="m 284.89989,26.910103 -1.50266,82.533457 -3.01334,23.64533 -3.01333,17.77187 c 13.58933,-6.16827 21.43867,-9.29213 35.54533,-14.15627 14.232,-4.912 22.41867,-7.2848 37.04667,-10.84626 l 3.91867,-19.2776 c -11.692,2.288 -18.18934,4.1588 -29.52,7.83067 -8.84134,2.86826 -13.732,4.8084 -22.28667,8.436 l 1.804,-95.634537 c 0.79467,-1.376 0.904,-2.71333 -0.15067,-4.06933 -1.068,-1.372 -2.83866,-1.728 -4.36666,-0.90267 l -14.46134,4.66934"
     style="fill:#231f20;fill-opacity:1;fill-rule:nonzero;stroke:none"
     id="path92" /><path
     d="m 284.89989,26.910103 -1.50266,82.533457 -3.01334,23.64533 -3.01333,17.77187 c 13.58933,-6.16827 21.43867,-9.29213 35.54533,-14.15627 14.232,-4.912 22.41867,-7.2848 37.04667,-10.84626 l 3.91867,-19.2776 c -11.692,2.288 -18.18934,4.1588 -29.52,7.83067 -8.84134,2.86826 -13.732,4.8084 -22.28667,8.436 l 1.804,-95.634537 c 0.79467,-1.376 0.904,-2.71333 -0.15067,-4.06933 -1.068,-1.372 -2.83866,-1.728 -4.36666,-0.90267 l -14.46134,4.66934 0,0 z"
     style="fill:none;stroke:#231f20;stroke-width:0.20266666;stroke-linecap:butt;stroke-linejoin:miter;stroke-miterlimit:3.86400008;stroke-dasharray:none;stroke-opacity:1"
     id="path94" /><path
     d="m 85.16123,48.867433 c 0,-4.2 0.80267,-4.2 6.616,-4.2 8.04667,0 14.3,3.48533 14.3,12.335995 0,9.6516 -7.95467,12.33547 -20.916,12.7792 l 0,-20.915195 z m -9.12,44.425597 c 0,2.59333 -1.34133,5.4516 -7.59733,5.4516 l 0,1.69893 24.58266,0 0,-1.69893 c -6.52666,0 -7.86533,-2.85827 -7.86533,-5.4516 l 0,-20.203072 5.00667,-0.17813 21.27466,27.531732 14.39334,0 0,-1.69893 c -4.024,-0.2692 -6.07867,-2.05467 -8.492,-5.00467 L 99.64256,71.928498 c 8.404,-1.16254 16.18,-5.54014 16.18,-15.01574 0,-10.458655 -8.93733,-15.639995 -23.77866,-15.639995 l -23.6,0 0,1.696 c 6.256,0 7.59733,2.86 7.59733,5.452 l 0,44.872267"
     style="fill:#231f20;fill-opacity:1;fill-rule:evenodd;stroke:none"
     id="path96" /><path
     d="m 272.82123,100.43156 3.14666,-11.81813 -1.95866,0 c -3.70267,8.88227 -9.02134,8.95 -14.612,8.95 l -9.232,0 c -1.396,0 -1.81467,-1.46667 -1.81467,-2.7256 l 0,-17.202 9.856,0 c 4.688,0 8.672,1.32653 8.672,6.78227 l 1.46667,0 0,-16.362002 -1.46667,0 c 0,5.45573 -3.984,6.712532 -8.672,6.712532 l -9.856,0 0,-15.033202 c 0,-1.74667 1.328,-2.72667 3.076,-2.72667 l 11.25467,0 c 4.896,0 7.20533,3.3572 7.97333,7.13067 l 1.53733,0 0,-9.99733 -37.128,0 0,1.328 c 5.104,0 6.15334,2.23733 6.15334,4.26533 l 0,35.102402 c 0,2.0256 -1.04934,4.2656 -6.15334,4.2656 l 0,1.32813 37.75734,0 0,0 z m -72.42933,0.9772 1.536,0 c 0.70133,-5.10426 5.73733,0 13.01066,0 9.508,0 14.75067,-6.50106 14.75067,-12.79533 0,-8.39067 -6.432,-11.39853 -15.94267,-17.131332 -3.008,-1.8176 -7.40933,-4.6848 -7.40933,-8.74107 0,-4.40427 3.14533,-6.7136 7.34133,-6.7136 6.5,0 11.11733,5.526 12.724,12.02867 l 1.74667,0 -1.536,-14.89267 -1.468,0 c -1.67734,5.17333 -5.03467,0 -12.44533,0 -6.85467,0 -12.376,4.752 -12.376,11.67653 0,13.356802 19.08666,13.774942 21.95333,23.567742 1.60933,5.44893 -2.23733,10.34533 -7.90133,10.34533 -7.41067,0 -12.304,-5.874 -14.47334,-12.37667 l -1.60666,0 2.096,15.0324 0,0 z M 187.33456,59.735428 c 0,-2.028 1.04934,-4.26533 6.852,-4.26533 l 0,-1.328 -20.836,0 0,1.328 c 5.80134,0 6.852,2.23733 6.852,4.26533 l 0,35.102402 c 0,2.0256 -1.05066,4.2656 -6.852,4.2656 l 0,1.32813 20.836,0 0,-1.32813 c -5.80266,0 -6.852,-2.24 -6.852,-4.2656 l 0,-35.102402 z m -19.35333,40.696132 3.148,-11.81813 -1.96133,0 c -3.70267,8.88227 -9.01867,8.95 -14.612,8.95 l -9.22934,0 c -1.39866,0 -1.81733,-1.46667 -1.81733,-2.7256 l 0,-17.202 9.86,0 c 4.68133,0 8.668,1.32653 8.668,6.78227 l 1.46933,0 0,-16.362002 -1.46933,0 c 0,5.45573 -3.98667,6.712532 -8.668,6.712532 l -9.86,0 0,-15.033202 c 0,-1.74667 1.328,-2.72667 3.07867,-2.72667 l 11.25466,0 c 4.896,0 7.2,3.3572 7.972,7.13067 l 1.53867,0 0,-9.99733 -37.12933,0 0,1.328 c 5.10533,0 6.152,2.23733 6.152,4.26533 l 0,35.102402 c 0,2.0256 -1.04667,4.2656 -6.152,4.2656 l 0,1.32813 37.75733,0"
     style="fill:#231f20;fill-opacity:1;fill-rule:evenodd;stroke:none"
     id="path98" /><path
     d="m 311.36123,49.155433 144.09599,0 m -323.02132,0 142.17466,0"
     style="fill:none;stroke:#231f20;stroke-width:1.13333333;stroke-linecap:butt;stroke-linejoin:miter;stroke-miterlimit:3.86400008;stroke-dasharray:none;stroke-opacity:1"
     id="path100" /><path
     d="m 282.44123,24.787433 -1.508,82.534797 -3.00934,23.64533 -3.01333,17.7692 c 13.588,-6.1656 21.43733,-9.28947 35.544,-14.15613 14.232,-4.90787 22.42133,-7.2824 37.04933,-10.84533 l 3.91467,-19.27454 c -11.68533,2.288 -18.19067,4.15467 -29.51867,7.8308 -8.84133,2.8708 -13.73466,4.80667 -22.28933,8.43334 l 1.81067,-95.634797 c 0.828,-1.35467 0.9,-2.712 -0.152,-4.068 -1.06934,-1.37334 -2.84134,-1.732 -4.36934,-0.90134 l -14.45866,4.66667 0,0"
     style="fill:#fbc707;fill-opacity:1;fill-rule:nonzero;stroke:none"
     id="path102" /><path
     d="m 282.44123,24.787433 -1.508,82.534797 -3.00934,23.64533 -3.01333,17.7692 c 13.588,-6.1656 21.43733,-9.28947 35.544,-14.15613 14.232,-4.90787 22.42133,-7.2824 37.04933,-10.84533 l 3.91467,-19.27454 c -11.68533,2.288 -18.19067,4.15467 -29.51867,7.8308 -8.84133,2.8708 -13.73466,4.80667 -22.28933,8.43334 l 1.81067,-95.634797 c 0.828,-1.35467 0.9,-2.712 -0.152,-4.068 -1.06934,-1.37334 -2.84134,-1.732 -4.36934,-0.90134 l -14.45866,4.66667 0,0 z"
     style="fill:none;stroke:#fbc707;stroke-width:0.33333331;stroke-linecap:butt;stroke-linejoin:miter;stroke-miterlimit:3.86400008;stroke-dasharray:none;stroke-opacity:1"
     id="path104" /><path
     d="m 459.29856,45.748763 1.42666,0 1.96134,2.636 5.41866,-0.37866 c -0.112,-1.21467 -0.148,-2.18 -0.52266,-3.08534 -1.16934,-2.80266 -1.16934,-3.34 -2.40934,-5.19866 l 1.35467,0 1.88,2.112 1.304,0 c 0.292,0 0.60933,0.10666 0.60933,0.48266 0,0.332 -0.268,0.42134 -0.59333,0.42134 l -0.568,0 1.20933,1.808 1.116,0 c 0.472,0 0.836,0.005 0.836,0.45066 0,0.42934 -0.41066,0.452 -0.80133,0.452 l -0.47467,0 1.88267,2.55734 3.988,0.37866 c 0.61733,0.06 1.304,0.21067 1.35867,0.83067 0.0547,0.62667 -0.804,0.716 -1.432,0.752 l -3.91467,0.22533 -1.88267,2.485335 0.592,0 c 0.31734,0 0.612,0.084 0.612,0.46666 0,0.40934 -0.31333,0.43467 -0.60133,0.43467 l -1.27867,0 -1.27866,1.65867 0.48933,0 c 0.31733,0 0.56267,0.10133 0.56267,0.5 0,0.37066 -0.28934,0.48 -0.57867,0.48 l -1.156,0 -1.584,2.18266 -1.72933,0 c 1.18266,-1.816 1.584,-2.86266 2.336,-5.04533 0.43066,-1.25467 0.56266,-2.00267 0.75333,-3.313325 l -5.57067,-0.228 -1.96133,2.561325 -1.432,0 0.90667,-2.783995 -0.828,-0.43867 0.752,-0.38933 -0.752,-3.01467 0,0"
     style="fill:#231f20;fill-opacity:1;fill-rule:nonzero;stroke:none"
     id="path106" /><path
     d="m 459.29856,45.748763 1.42666,0 1.96134,2.636 5.41866,-0.37866 c -0.112,-1.21467 -0.148,-2.18 -0.52266,-3.08534 -1.16934,-2.80266 -1.16934,-3.34 -2.40934,-5.19866 l 1.35467,0 1.88,2.112 1.304,0 c 0.292,0 0.60933,0.10666 0.60933,0.48266 0,0.332 -0.268,0.42134 -0.59333,0.42134 l -0.568,0 1.20933,1.808 1.116,0 c 0.472,0 0.836,0.005 0.836,0.45066 0,0.42934 -0.41066,0.452 -0.80133,0.452 l -0.47467,0 1.88267,2.55734 3.988,0.37866 c 0.61733,0.06 1.304,0.21067 1.35867,0.83067 0.0547,0.62667 -0.804,0.716 -1.432,0.752 l -3.91467,0.22533 -1.88267,2.485335 0.592,0 c 0.31734,0 0.612,0.084 0.612,0.46666 0,0.40934 -0.31333,0.43467 -0.60133,0.43467 l -1.27867,0 -1.27866,1.65867 0.48933,0 c 0.31733,0 0.56267,0.10133 0.56267,0.5 0,0.37066 -0.28934,0.48 -0.57867,0.48 l -1.156,0 -1.584,2.18266 -1.72933,0 c 1.18266,-1.816 1.584,-2.86266 2.336,-5.04533 0.43066,-1.25467 0.56266,-2.00267 0.75333,-3.313325 l -5.57067,-0.228 -1.96133,2.561325 -1.432,0 0.90667,-2.783995 -0.828,-0.43867 0.752,-0.38933 -0.752,-3.01467 0,0 z"
     style="fill:none;stroke:#231f20;stroke-width:0.20266666;stroke-linecap:butt;stroke-linejoin:bevel;stroke-miterlimit:3.86400008;stroke-dasharray:none;stroke-opacity:1"
     id="path108" /><path
     d="m 355.06389,114.3925 c 0,-4.12654 3.34667,-7.47187 7.46933,-7.47187 4.124,0 7.468,3.34533 7.468,7.47187 0,4.12293 -3.344,7.46146 -7.468,7.46146 -4.12266,0 -7.46933,-3.33853 -7.46933,-7.46146 l 0,0 z"
     style="fill:none;stroke:#231f20;stroke-width:0.66666663;stroke-linecap:butt;stroke-linejoin:miter;stroke-miterlimit:4;stroke-dasharray:none;stroke-opacity:1"
     id="path110" /><path
     d="m 362.85322,114.6889 c 0.80134,0 1.49467,0.1188 1.684,1.03853 0.13067,0.648 0.0507,2.23853 0.37867,2.81613 l 0.88533,0 0,-0.0844 c -0.21333,-0.16506 -0.31866,-0.51706 -0.35466,-1.8 -0.0227,-0.89573 -0.08,-1.9572 -1.08534,-2.30093 0.97867,-0.43333 1.38,-1 1.38,-2.07187 0,-1.56826 -1.02666,-2.2256 -2.888,-2.2256 l -3.32266,0 0,8.4828 0.804,0 0,-3.85466 2.51866,0 0,0 z m -2.51866,-0.6844 0,-3.2624 2.544,0 c 1.07066,0 2.06,0.3052 2.06,1.5776 0,1.1932 -0.91867,1.6848 -2.112,1.6848 l -2.492,0"
     style="fill:#231f20;fill-opacity:1;fill-rule:evenodd;stroke:none"
     id="path112" /></svg>